<svg width="120" height="42" xmlns="http://www.w3.org/2000/svg" xmlns:xlink="http://www.w3.org/1999/xlink" id="Layer_1" x="0px" y="0px" viewBox="0 0 131.6 67.2" style="enable-background:new 0 0 131.6 67.2;" xml:space="preserve"><style type="text/css">	.st0{fill:#9e916f;}</style><g>	<g>		<path class="st0" d="M112.9,10.7c0.9,0,1.5-0.9,1.5-1.6c0-0.6-0.4-1.1-1-1.1c-0.9,0-1.4,0.9-1.4,1.6   C111.9,10.3,112.3,10.7,112.9,10.7z M124,21.4c-0.1,0-0.2,0.4-2.4,2.7c-1.8,1.9-3.9,2.9-5.3,2.9c-1.2,0-1.7-0.5-1.7-1.6   c0-4.7,4.1-8.8,6.6-8.8c0.7,0,1,0.4,1,0.7c0,0.9-1.2,0.5-1.2,1.6c0,0.5,0.3,1,1,1c1,0,1.5-1,1.5-1.8c0-1.3-1.1-2-2.7-2   c-2.3,0-4.7,1.1-7,3.9c-0.7,0.8-1,1.2-1.2,1.4c-0.4,0.4-1.5,1.7-2.3,2.5c-1.4,1.4-3.3,3-4.6,3c-0.4,0-0.8-0.2-0.8-0.9   c0-0.9,0.8-1.9,5.8-10l-2.6,0.2c-0.6,0.9-2.5,2.7-3.6,4c-0.5,0.6-0.9,1-1,1.2c-0.2,0.2-0.6,0.9-2.5,2.7c-1.9,1.8-3.3,2.9-4.6,2.9   c-0.5,0-0.8-0.2-0.8-0.6c0-1.9,6.6-11.2,7.9-13.4h5.1c0.2,0,0.2-0.1,0.2-0.2c0-0.2-0.1-0.2-0.2-0.2h-4.8l2.7-4.1l-2.6,0.2   l-2.4,3.9h-1.7c0,0-0.2,0.1-0.2,0.2c0,0.1,0,0.2,0.2,0.2h1.5c-1.9,2.7-4.4,5.7-5.7,7c-0.7,0.7-1.1,1.2-1.4,1.5   c-0.1,0.1-0.2,0.2-0.6,0.7c-1,1.2-2.4,2-3.9,2c-0.2,0-0.4,0-0.5-0.1c1.2-1.2,2.4-3.4,2.4-5.1c0-1.6-0.9-2.8-2.5-2.8   c-1.9,0-4.4,1-6.8,3.2c-0.8,0.7-1.8,1.8-2.2,2.3c-0.3,0.3-0.8,0.9-1.8,2c-2.2,2.2-3.6,3.3-4.6,3.3c-0.3,0-0.5-0.2-0.5-0.7   c0-4.3,4.2-9.3,5.7-9.3c0.6,0,0.6,0.1,0.6,0.5c0.1,0.7,0.5,0.9,1,0.9c0.6,0,0.9-0.4,0.9-1c0-0.7-0.6-1.3-1.6-1.3   c-1.9,0-4.3,2.9-5.1,4.4l-0.1-0.1c0.1-0.2,0.2-0.9,0.2-1.7c0-1.6-0.6-2.6-1.7-2.6c-1.2,0-2.5,1.1-4.1,2.7   c-2.4,2.5-2.6,2.9-2.6,2.9c0,0.1,0,0.2,0.2,0.2c0.2,0,0.4-0.6,2.6-2.7c1.6-1.6,2.9-2.7,3.9-2.7c0.2,0,0.5,0.2,0.5,0.7   c0,0.7-1,4-1.5,4.9c-1.2,2-3.9,4.6-5.1,4.6c-0.2,0-0.3-0.2-0.3-0.7c0-0.7-0.4-1.1-1-1.1c-0.8,0-1.1,0.5-1.1,1.2   c0,0.8,0.4,1.3,1.8,1.3c2.2,0,4.4-2.8,5.4-4.4h0.1c-0.1,0.3-0.2,0.8-0.2,1.1c0,1.8,0.3,3.3,2,3.3c1.2,0,2.4-0.8,4.3-2.7   c1.4-1.4,2.6-2.8,2.7-3.1c0.1-0.1,0.2-0.2,0.3-0.2c0.1,0,0.1,0.1,0.1,0.2c0,0.2-0.2,0.7-0.2,2.1c0,2.2,0.9,3.6,2.6,3.6   c2.3,0,4-1.5,5.3-2.9c0.1,0,0.2,0,0.5,0c1.6,0,3.1-0.7,4.1-1.8c0.6-0.6,0.8-0.9,0.9-1c0.4-0.4,0.9-1.1,1.2-1.3   c1.1-1.3,1.7-1.9,2.5-2.9l0.1,0.1c-2.4,3.4-3.9,5.4-3.9,7.8c0,0.9,0.5,2,1.9,2c1.2,0,2.7-0.9,5.2-3.3c0.7-0.7,1.7-1.7,2.1-2.2   c0.1-0.1,0.2-0.2,0.4-0.5c2-2.2,3-3.3,3.5-3.8l0.1,0.1c-1.4,2.1-3.9,4.9-3.9,7.6c0,1.2,0.7,2.1,2,2.1c1.2,0,2.9-1.1,4.9-3.1   c1.2-1.2,1.9-2,2.3-2.5c0,0,0.1-0.1,0.1-0.1c0,0,0.1,0,0.1,0.1c0,0.1-0.1,0.4-0.1,1.1c0,2,0.7,4.5,3.3,4.5c2.1,0,4.1-1.1,6.7-4   c0.9-0.9,1.6-1.8,1.6-1.9C124.3,21.5,124.2,21.4,124,21.4z M83.5,27c-0.6,0-1.1-0.4-1.1-1.5c0-3.4,3.9-8.9,6.8-8.9   c1,0,1.5,0.9,1.5,1.8C90.7,22.2,86.8,27,83.5,27z"></path>		<path class="st0" d="M81.2,42.1h-1.1v-0.9h3.3v0.9h-1.1v3.2h-1.1V42.1z"></path>		<path class="st0" d="M88.4,45.3h-1l-0.5-0.8h-0.3v0.8h-0.9v-3.3H87c0.9,0,1.4,0.6,1.4,1.3c0,0.5-0.2,0.9-0.6,1.1L88.4,45.3z    M86.9,43.8c0.4,0,0.6-0.2,0.6-0.5c0-0.3-0.1-0.6-0.6-0.6h-0.3v1.1H86.9z"></path>		<path class="st0" d="M90.9,45.3H90l1.6-3.4c0,0,0,0,0.1,0l1.6,3.4h-0.9L92.3,45c0,0-1.3,0-1.3,0L90.9,45.3z M91.7,43.5l-0.3,0.8   H92L91.7,43.5z"></path>		<path class="st0" d="M95.8,45.3C95.8,45.3,95.8,45.3,95.8,45.3l-1.7-3.4h1l0.7,1.6l0.7-1.6h0.9L95.8,45.3z"></path>		<path class="st0" d="M99.2,41.9h2.4v0.8h-1.5v0.8h1.2v0.7h-1.2v0.3h1.5v0.8h-2.4V41.9z"></path>		<path class="st0" d="M103.6,41.9h0.9v2.6h1.4v0.8h-2.3V41.9z"></path>		<path class="st0" d="M107.8,41.9h2.4v0.8h-1.5v0.8h1.2v0.7h-1.2v0.3h1.5v0.8h-2.4V41.9z"></path>		<path class="st0" d="M114.9,45.3h-1l-0.5-0.8h-0.3v0.8h-0.9v-3.3h1.3c0.9,0,1.4,0.6,1.4,1.3c0,0.5-0.2,0.9-0.6,1.1L114.9,45.3z    M113.5,43.8c0.4,0,0.6-0.2,0.6-0.5c0-0.3-0.1-0.6-0.6-0.6h-0.3v1.1H113.5z"></path>		<path class="st0" d="M116.6,44.7l0.7-0.5c0.2,0.2,0.4,0.4,0.7,0.4c0.3,0,0.4-0.1,0.4-0.3c0-0.1-0.1-0.2-0.3-0.3l-0.4-0.1   c-0.5-0.2-0.8-0.5-0.8-1c0-0.7,0.6-1,1.2-1c0.6,0,0.9,0.2,1.1,0.4l-0.5,0.5c-0.1-0.1-0.3-0.2-0.6-0.2c-0.2,0-0.3,0.1-0.3,0.2   c0,0.1,0.1,0.2,0.2,0.2l0.4,0.1c0.7,0.2,0.9,0.5,0.9,1c0,0.6-0.4,1.1-1.3,1.1C117.2,45.3,116.8,45,116.6,44.7z"></path>		<path class="st0" d="M122.1,34.6c-5.7-7.6-19.4-6.3-31.3-2.5C76,36.9,66.6,45.4,55.7,50.5c0.9-0.5,1.8-1.1,2.6-1.7   c5.6-4,8.4-8.5,8.4-13.5c0-2.3-0.8-4.2-2.5-5.6c-1.7-1.4-4-2.1-6.8-2.1c-6.2,0-12,2.1-17.2,6.4c-4.1,3.3-6.6,6.9-7.5,10.8   c1.4-2.9,4.3-6.3,8.1-9.3c3.3-2.6,6.7-4.4,9.6-5.3c2.6-1,5.2-1.5,7.9-1.5c2.3,0,4.1,0.6,5.6,1.8c1.5,1.2,2.2,2.7,2.2,4.6   c0,4.4-2.9,8.7-8.8,12.8c-5.4,3.8-10.9,5.9-16.5,6.2c0,0-0.1,0-0.1,0c0,0,0,0,0,0c-0.5,0-1,0-1.5,0c-1.3,0-2.6-0.1-4.1-0.4   c-0.2,0-0.3,0-0.5-0.1c-0.6-0.1-1.2-0.3-1.7-0.5c-4.7-1.4-7.1-4.4-7.1-9c0-7.3,4.9-13.2,14.6-17.8c3.8-1.8,7.2-2.9,10.1-3.3   c2.1,0.5,4.1,0.8,6,0.8c1.4,0,2.2-0.2,2.2-0.6c0-0.6-1.4-0.9-4.1-0.9c-0.9,0-2.3,0.1-4.2,0.2c-1.3-0.7-1.9-1.9-1.9-3.8   c0-3.8,2.2-6.9,6.6-9.4c9.5,2.3,15.5,3.5,18,3.5c3.2,0,4.8-0.9,4.8-2.6c0-1.3-1.2-2.5-3.7-3.4c-2.5-0.9-5.5-1.4-9-1.4   c-4.8,0-8.9,0.9-12.5,2.6c-8-1.9-14.3-2.9-19.1-2.9c-8.6,0-15.3,2.3-20.1,6.8c-4,3.8-6,8-6,12.5c0,3,0.8,5.6,2.5,7.7   c1.7,2.1,3.8,3.2,6.2,3.2c1.4,0,2.5-0.4,3.5-1.1c0.9-0.7,1.4-1.6,1.4-2.7c0-1.6-0.8-2.4-2.5-2.4c-0.9,0-1.6,0.3-2.2,0.8   c-0.6,0.5-0.9,1.1-0.9,1.8c0,1.3,0.7,1.9,2.1,1.9c0.5-0.1,0.7,0,0.7,0.2c0,0.4-0.7,0.7-2.1,0.7c-2,0-3.7-0.9-5.1-2.6   c-1.4-1.7-2.1-3.8-2.1-6.2c0-5.4,2.7-9.9,8.1-13.7c5.4-3.8,12-5.7,19.7-5.7c3.9,0,8.9,0.7,15,2.1c-4.2,2.3-6.3,5.1-6.3,8.4   c0,2.6,1.4,4.5,4.3,5.7c-4.1,0.5-7.7,1.2-10.8,2.2c-5.2,1.7-9.4,4.1-12.5,7.4c-3.1,3.2-4.7,6.7-4.7,10.4c0,2.8,1.1,5.2,3.3,7.3   c2.2,2.1,5.3,3.6,9.3,4.4l1.3,0.2c1.2,0.2,2.5,0.2,3.9,0.2c2.6,0,5-0.3,7.4-0.8c1.7-0.3,3.5-0.9,5.4-1.6   C67.2,47,75.8,39.9,91.8,34.7l0.1,0c10.7-3.5,24.4-5.4,28.9,0.4c6.6,8.6-6.9,19-21.6,23.8C89.3,62,78.9,63,74.7,58.8   c-4.4-4.3,0.8-8.7,6.4-10.5c2.9-0.9,3.7-0.6,3.8-0.8c0.1-0.2-1.4-0.3-4,0.5c-6.3,1.8-12.7,7.1-8.3,11.5c4.8,4.7,16.1,3.3,26.8-0.2   C115.6,53.9,128.6,43.2,122.1,34.6z M66.4,6.3c2.8,0,5.2,0.4,7.4,1.2c2.1,0.8,3.2,1.7,3.2,2.7c0,1.3-1.2,2-3.7,2   c-4.7,0-10.5-1.1-17.3-3.4C59.1,7.1,62.6,6.3,66.4,6.3z"></path>	</g></g></svg>