<?xml version="1.0" encoding="UTF-8"?>
<svg id="Capa_2" data-name="Capa 2" xmlns="http://www.w3.org/2000/svg" viewBox="0 0 83.05 83.05">
  <defs>
    <style>
      .cls-1 {
        fill: #dcd122;
      }

      .cls-1, .cls-2 {
        stroke-width: 0px;
      }

      .cls-2 {
        fill: #fff;
      }
    </style>
  </defs>
  <g id="Capa_1-2" data-name="Capa 1">
    <g>
      <circle class="cls-1" cx="41.53" cy="41.53" r="41.53"/>
      <path class="cls-2" d="M59,21.86H24.19l-8.53,10.86,25.93,35.41,25.8-35.4-8.39-10.87ZM49.06,33.73l-7.48,28.87-7.62-28.87h15.1ZM34.89,31.77l6.69-7.45,6.57,7.45h-13.26ZM43.76,23.82h12.67l-6.13,7.41-6.54-7.41ZM32.73,31.24l-6.01-7.41h12.67l-6.66,7.41ZM30.63,31.77h-11.73l5.77-7.35,5.96,7.35ZM31.93,33.73l7.39,27.99-20.5-27.99h13.11ZM51.08,33.73h13.15l-20.41,28,7.25-28ZM52.41,31.77l6.08-7.35,5.68,7.35h-11.76Z"/>
    </g>
  </g>
</svg>