<?xml version="1.0" encoding="UTF-8"?>
<svg id="Capa_2" data-name="Capa 2" xmlns="http://www.w3.org/2000/svg" viewBox="0 0 83.05 83.05">
  <defs>
    <style>
      .cls-1 {
        fill: #83a880;
      }

      .cls-1, .cls-2 {
        stroke-width: 0px;
      }

      .cls-2 {
        fill: #fff;
      }
    </style>
  </defs>
  <g id="Capa_1-2" data-name="Capa 1">
    <g>
      <circle class="cls-1" cx="41.53" cy="41.53" r="41.53"/>
      <path class="cls-2" d="M56.22,18.76h-28.74l-8.83,8.46v29.13l8.84,7.95h28.71l8.2-7.97v-29.09l-8.18-8.48ZM55.99,31.36l-4.06-4.2,4.05-6.2,6.23,6.46-6.23,3.95ZM50.51,54.94h-17.58l-4.89-4.4v-17.74l4.91-4.7h17.55l4.52,4.68v17.78l-4.5,4.38ZM50.4,26.41h-17.32l-3.73-5.96h24.94l-3.9,5.96ZM31.52,27.12l-4.44,4.25-6.22-3.94,6.79-6.5,3.87,6.19ZM26.34,32.91v17.55l-6,3.93v-25.28l6,3.8ZM27.11,51.99l4.4,3.96-3.87,6.2-6.75-6.07,6.23-4.08ZM33.08,56.64h17.32l3.9,5.96h-24.94l3.73-5.96ZM51.95,55.91l4.02-3.91,6.24,4.09-6.2,6.03-4.06-6.21ZM56.71,50.46v-17.55l6-3.8v25.28l-6-3.93Z"/>
    </g>
  </g>
</svg>