<?xml version="1.0" encoding="UTF-8"?>
<svg id="Capa_2" data-name="Capa 2" xmlns="http://www.w3.org/2000/svg" viewBox="0 0 83.05 83.05">
  <defs>
    <style>
      .cls-1 {
        fill: #5d97d1;
      }

      .cls-1, .cls-2 {
        stroke-width: 0px;
      }

      .cls-2 {
        fill: #fff;
      }
    </style>
  </defs>
  <g id="Capa_1-2" data-name="Capa 1">
    <g>
      <circle class="cls-1" cx="41.53" cy="41.53" r="41.53"/>
      <path class="cls-2" d="M41.23,10.49l-16.2,32.84v14.6l16.2,13.7,16.78-13.69v-14.32L41.23,10.49ZM49.68,45.14l-7.59-14.97v-14.02l13.75,27.13-6.16,1.85ZM41.4,58.2l-6.68-5.65v-6.28l6.68-13.54,6.94,13.69v6.12l-6.94,5.66ZM40.38,30.74l-7.02,14.23-6.18-1.98,13.2-26.76v14.5ZM32.93,46.71v5.74l-6.11,3.53v-11.22l6.11,1.95ZM33.73,54.05l6.76,5.72-.11,8.8-12.9-10.91,6.26-3.61ZM42.27,59.78l7.04-5.74,6.24,3.6-13.4,10.93.11-8.78ZM50.12,52.45v-5.58l6.11-1.84v10.94l-6.11-3.53Z"/>
    </g>
  </g>
</svg>