<?xml version="1.0" encoding="UTF-8"?>
<svg id="Capa_2" data-name="Capa 2" xmlns="http://www.w3.org/2000/svg" viewBox="0 0 199.13 93.34">
  <defs>
    <style>
      .cls-1 {
        fill: #707071;
      }

      .cls-1, .cls-2 {
        stroke-width: 0px;
      }

      .cls-2 {
        fill: #e5a142;
      }
    </style>
  </defs>
  <g id="Capa_1-2" data-name="Capa 1">
    <g>
      <path class="cls-1" d="M28.12,57.82c-3.05,4.62-8.72,7.23-14.67,7.23h-5.77l7.77-11.81h2c1.05,0,3.45-.11,4.24,1.27.62,1.05-.18,2.69-1.3,4.5-.22.33.22.66.47.25l7.26-10.9c.22-.29-.22-.62-.47-.29-3.56,4.47-5.41,4.37-9.91,4.37h-1.96l6.08-8.93h5.55c1.02,0,3.82-.2,4.55,1.15.84,1.53-.51,3.45-1.67,5.49-.18.36.22.55.44.25l4.68-7.09c.22-.32,0-.4-.22-.4H15c-.33,0-.29.47,0,.47,2.54,0,3.19.07,3.37.58.22.43-.33,1.16-1.27,2.58l-10.31,15.52c-1.74,2.62-2.72,3.16-6.61,3.16-.29,0-.22.48,0,.48h23.32l5.04-7.63c.22-.29-.22-.54-.43-.26M35.01,65.26c-1.96,0-2.14-1.1-1.48-2.21.51-.86,7.25-13.55,14.24-19.97,4.85-4.53,9.92-6.23,14.62-6.23,3.52,0,5.98.91,6.99,1.56.12.08,1.14.67,1.27.69.11,0,.21,0,.22-.17.02-.39-.7-.79-1.12-1.04-2.17-1.27-4.75-1.63-7.28-1.63-5.47,0-11.52,2.65-16.59,6.57-7.06,5.55-13.2,16.6-15.44,19.93-1.09,1.62-1.6,2.31-3.8,2.5-.25.02-.25.47,0,.47h8.37c.33,0,.25-.47,0-.47M85.09,66.7c-6.9,7.64-17.62,9.13-25.09,9.08,1.68-3.56,10.29-32.36,26.02-38.98,1.17,1.43,2.19,2.95,3.02,4.53,1.24,2.56,2.05,5.32,2.3,7.54,1.15,10.36-5.8,17.33-6.25,17.82M87.57,35.47s.06.07.09.11c-.05-.06-.11-.13-.16-.2,0,0,0,0-.01-.02h0c-4.47-5.43-11.48-9.89-19.75-11.37-5.43-.97-10.72-.66-15.48.63h0c-4.35,1.08-7.68,2.92-9.58,5.5-.17.25-.39.45-.55.68-.11.15-.19.31-.25.49-.05.2-.2.66.1.74.19.05.44-.18.53-.32.41-.63.32-.58.71-1.14,1.07-1.72,3.17-3.14,5.88-4.16,5.06-1.61,10.78-2.12,16.62-1.08,8.21,1.46,15.17,5.52,19.82,10.9-15.01,2.81-27.6,36.47-29.26,39.38-2.5-.19-4.17-.5-4.62-.6-.52-.09-4.44-.93-5.03-2.92-.06-.26-.09-.32-.22-.32-.23.11-.22.24-.17.46.26,1.08,1.21,2.07,2.53,2.76,2.68,1.41,9.27,2.18,16.62,1.62,4.68-.35,23.21-3.02,27.67-18.16,2.8-9.49-.44-16.57-5.5-22.99M180.39,64.64c-.71,3.51-3.9,7.17-7.76,8.9-.86.4-2.74.91-3.7.4-.81-.56-1.22-1.42-1.27-2.44-.15-2.44,1.37-5.49,4.16-7.68,1.78-1.57,4.06-2.59,5.63-2.84.92-.16,1.88.1,2.39.66.71.81.81,1.98.56,2.99M174.7,60.42c-1.27.21-3.15.82-4.26,1.38-3.35,1.72-5.68,4.21-6.09,7.52-.15,1.68.25,3.15,1.68,4.22,2.43,1.98,7.36,1.16,9.18.66,3.1-1.02,7.26-3.61,8.32-7.32.4-1.53.31-3.05-.81-4.43-2.03-2.28-5.38-2.54-8.02-2.03M130.78,73.43c-.92.4-1.72.51-2.28.05-.36-.36-.61-.97-.41-1.88.66-3.71,5.83-8.74,9.19-10.17.76-.3,1.68-.61,2.34-.05.5.41.66.97.45,1.78-.51,2.7-6.14,8.95-9.29,10.27M141.98,73.38c-.65.3-1.16.48-1.46.5-.56.05-.96,0-1.37-.61-.76-1.17,1.27-4.02,3.15-6.76l3.6-5.34c.4-.55.25-1.01-.56-1.01h-1.47c-.91,0-1.07.15-1.57.86l-1.27,1.63c-.35-1.53-.91-2.13-2.13-2.39-2.94-.61-8.42,1.73-11.62,5.08-1.98,2.14-2.84,4.57-2.28,6.71.35,1.42,1.21,2.39,2.23,2.59,2.89.71,6.7-1.73,9.13-4.58-.15,1.48-.2,2.54.4,3.51.77,1.11,1.88,1.32,3.05,1.22.67-.04,1.53-.32,2.48-.74.43-.39.18-.89-.31-.68M120.44,67.23c3.6-5.74,14.77-13.9,21.78-9.98.78.44,1.22.86,1.81,1.14.14.08.97-.1.16-.79-3.78-3.19-13.12-3.81-21.63,4.97,0,0,.29-.42-.22-1.13-.87-1.37-3.96-.96-5.4-.71l-2.82.4c-.47.1-.31.76.1.66l2.83-.36c1.7-.25,2.41-.3,2.72,0,.31.36.31.72-.41,1.88l-4.42,7.01c-.97,1.08-2.02,3.41-5.43,3.51-.36.01-.36.66,0,.66h10.9c.46,0,.36-.66,0-.66-2.77,0-3.26-1.54-2.12-3.1l2.16-3.5ZM158.6,64.18c-.81,1.88-6.75,9.36-9.34,9.66-.61.1-1.16,0-1.52-.66-.51-1.02.05-3.15.61-4.27,1.58-3.11,5.94-7.37,8.93-7.88.61-.1,1.12-.05,1.58.51.46.61.2,1.62-.25,2.64M198.79,44.25c-.14-.14-.29-.24-.45-.32-.26-.12-.54-.2-.81-.33-4.82-2.24-12.18-.82-20.29,3.61-8.02,4.37-15.18,12.05-17.31,14.99-.36-1.17-1.12-1.73-2.08-1.93-2.49-.51-7.61,1.37-10.65,4.72-2.08,2.24-3.1,4.78-2.49,6.91.36,1.32,1.52,2.44,2.79,2.75,2.84.76,5.37-2.03,8.22-5.08-.05,1.37-.15,2.64.61,3.71.86,1.37,2.08,1.53,3.14,1.53,1.18-.04,2.49-.66,3.77-1.58,0,0,.03-.39-.48-.32-.52.06-.91.33-.91.33-.76.4-1.44.59-1.97.44-.71-.15-1.12-.61-1.27-1.07-.86-2.34,2.23-6.76,4.87-10.37,3.7-4.93,8.83-10.57,14.56-14.13,7.1-4.47,15.18-6.15,19.23-3.86.61.31.51.31,1.17.66.15.08.48.16.62.03.22-.22-.13-.55-.27-.7M108.13,64.64c-.71,3.51-3.91,7.17-7.76,8.9-.87.4-2.74.91-3.7.4-.81-.56-1.22-1.42-1.27-2.44-.15-2.44,1.37-5.49,4.16-7.68,1.78-1.57,4.06-2.59,5.63-2.84.91-.16,1.88.1,2.39.66.71.81.81,1.98.56,2.99M110.46,62.45c-2.03-2.28-5.38-2.54-8.02-2.03-1.27.21-3.15.82-4.26,1.38-3.35,1.72-5.68,4.21-6.09,7.52-.15,1.68.25,3.15,1.67,4.22,2.44,1.98,7.36,1.16,9.19.66,3.09-1.02,7.25-3.61,8.32-7.32.4-1.53.31-3.05-.81-4.43"/>
      <path class="cls-2" d="M139.55,31.38s-.01.02-.02.03c0,0,.01,0,.02-.03M149.63,37.38c-.53-.49-.3-1.64-.04-2.33-.24.19-.44.74-.57,1.04-.4.4-.49.07-.69-.27-.4-.9.37-1.14.28-2.18-.45.24-.39.64-.7,1.02-.31.4.1-1.69.15-2.2-.41.36-.66.89-.77,1.55-.72-.36-.15-1.88-.45-2.47.04.3-.47,1.58-.68,1.21-.29-.51-.39-1.88-.42-2.36-.45.24-.16.93-.46,1.31-.32.23-.4-.68-.4-.68,0,0-.32-1.01-.08-1.81-.68.36-.52,1.41-.52,1.41l-.64-1.09s.12-2.38-.18-1.56c-.21.55-.24.99-.24,1.13,0-.04,0-.08-.02-.15-.25.28-.51-.17-.51-.17,0,0-.59-.6-.85-.43.34.59,5.08,5.64,5.39,12.37-.08-.16-.23-.25-.43-.3-.26-.07-.6-.09-.87-.2-.15-.06-.28-.14-.38-.26-.16-.21-.26-.93-.16-1.48-.33.08-.78.97-1.07.63-.16-.8-.14-1.61-.17-2.21,0,.08-.28.47-.33.58-.09.22-.17.45-.25.68-.12-.24-.24-.51-.35-.81.12-.49.17-1.02.14-1.51.01.08-.53.79-.58.9-.02.04-.03.09-.05.13-.65-.7-.85-1.43-.85-1.43l.21-1.66s-.54,1.12-.75.86c-.21-.25-.12-.33-.14-.95-.01-.28-.05-1.09-.07-1.11.01.07-.35,1.43-.35,1.43,0,0-.59-2.17-1.05-2.37-.04.39-.09.79-.14,1.2-.71,5.99-1.99,11.47-3.61,15.93,6.01-1.51,11.14-5.22,14.5-10.23-.03-.05-.05-.11-.06-.16-.48-.8.38-1.75.49-2.8-.52.84-.96,1.36-1.29,1.81M154.53,23.93c-.28-.5-.49-1.04-.7-1.42-.21.87.28,1.28.26,2.29-.52-.1-.78-.83-1.43-1.81-.28.05-.23,1.32-.26,1.71-.64-.54-.72.05-1.58-2.31-.17-.12-.53-.46-.53-.46,0,0,.38,1.54.55,1.97-.53.37-2.35-.55-2.35-.55,0,0-.07-1.35-.29-1.85-.41.33-.3,1.5-.29,1.51l-.8-.19s.03.07.04.1c-.02-.02-.06-.11-.04-.14-.2-.79-.35-1.22-.78-1.75.07.62,0,1.24,0,1.24,0,0-.76-.58-1.11-.52-.11-.45-.34-.48-.68-.67-.09.6-.26.32.1.58l.16.1c3.91,2.28,6.03,5.17,6.92,7.91.41,1.04,1.11,3.77.83,4.87.04.01-.01.23.02.25,1.37-3.07,2.15-6.46,2.15-10.05,0-.35-.16-.48-.18-.83M135.6,32.88s-.16.27-.34.43c-.15.13-.74-1.27-.96-1.17.18.36.38.81.27,1.25-.57.39-1.17,1.2-1.26,1.17-.5-.13-.3-.92-.67-2.38-.71.53-.33,1.89-.4,3.22-1.55,1.19-1.02-.68-1.35-1.22-.9.31-.31,1.26-.65,2.26-.52.74-.69.29-.83-.43-.94.68-.28.74-.66,2.11-.49-.97-.62-1.03-.79.96-.64,1.15-.68-.21-.63-.77-.34.43-.07,1.34-.41,2.34,0,.25-.33-.46-.52-.27-.09.09-.05.74-.11,1.16-.64,1.15-1.04.51-.99-.04-.26.18,0,1.62-.13,1.8-.39.53-.4.56-1.04,1,.09-6.3,2.41-10.75,6-14.01,0-.14,1.22-1.16,1.24-1.26.06-.35-1.06.31-1.15.39-.35.3-.46.68-.85,1.3-.72.47-.47-.62-.23-1.41l-.6.93c-.15.52-.28,1.12-.63,1.46-.43.1-.48.12-.77.19-.9.22-.04-2.26-.36-2.32-.32-.07-.55,2.14-1.32,2.69-.27.19-.57-1.38-.87-1.16-.27.2-1.2,1.78-1.48,1.98-.33.25-.47-.84-.78-.6-.74.58-.9,1.07-1.18,1.39-.07-.4-.33-.79-.66-.71-.66.83-1.89,1.49-1.82,1.34,2.49-5.89,7.49-8.52,10.1-9.53,1.02-.39,4.51-.75,4.51-.75,0,0-.61-.11-.48-.24.53-.81-2.05.31-2.45.24-.52-.09.44-.84.2-.88-.24-.04-.96.89-1.21,1.04-.24.16-.56-.04-.76-.16-.2-.12.2-1.03.28-1.24-.74.28-1.04,1.45-1.48,1.4-.25-.03-.15-1.04-.05-1.52-.99-.49-.69.68-1.12,1.37-.52-.12-1.32-.31-1.32-.31v-1.58l-1.41,1.3s.04-.68.38-1.66c-.81.73-1.03,1.45-1.25,1.37-.23-.08.24-1.2-.21-1.21-.25,0-1.09,1.2-1.39,1.18-.12,0-.72-.08-.89-.11-.01-.57.12-.72.32-1.53-.87.02-.79.86-1.41,1.33-.12.09-1.44.02-1.55.09.05-.42.37-.67.46-1.4-.78.18-1.38,1.59-2.51,1.49-1,.37,1.16-1.15,1.71-1.94-.29-.03-2.33,1.49-2.66,1.56-.58.11-.6-.52-.76-.89,7.68-6.63,19.66-3.17,20.26-3.36-.82-.55-3.17-1.02-3.94-1.24-.16-.33,1.46-.49,1.67-.65-.43-.59-2.43.6-3.13.32-.75-.11,1.06-.67.65-.86-.13-.06-1.6.33-1.73.27-.43-.21-1.03-.38-1.25-.5-1.13-.57,1.26-.67,1.88-.71-.49-.48-.92-.16-1.69-.2-.59-.03-2.08.3-2.73.19,1.68-1,2.55-.56,1.84-1.27-.32-.33-2.43.48-2.86.65-.44.16,1.56-1.68,1.19-1.68s-2.92,1.08-3.21,1.13c.56-.55,2-1.73,2.62-1.78-.31-.13-2.2.66-3.41.84-.29.04-.55-.35-.72-.34,1.89-2.43,11.65-3.07,16.55,1.19.32-.77-1.7-2.41-2.8-2.89-.48-.44-.44-1.23-.49-1.33-.16-.32,2.41,1.04,2.41,1.04,0,0,.05.02.12,0,0-.04.02-.09.03-.13-.54-.81-2.35-1.59-3.25-2.35-.24-.21,1.72.26,1.21-.02-.91-.52-1.53-.81-1.5-.99.48-.09,1.43-.04,2.64.82-.51-1.5-2.98-2.36-2.98-2.36.33-.41,2.29-.25,2.69,0-.4-.42-2.21-1.08-2.47-1.3-.26-.22-.68-2.01-.68-2.01,0,0,1.3.09,2.51,1.08-.86-1.08-1.95-1.83-1.61-1.77,3.09.57,4.43,1.83,5.29,3,.4.54-.88-2.03-.21-1.51,1.08.84,2.46,3.13,2.7,4.56.16.95.27,1.72.35,2.36.01.03.02.05.03.08,1.08-2.76,3.57-3.32,5.12-3.32-.03-.02,2.17.23,2.39.17-4.45-4.36-10.54-7.04-17.26-7.04-13.65,0-24.72,11.08-24.72,24.75s10.14,23.69,23.06,24.5c3.84-4.88,7.2-11.67,7.71-17.03,0-.09-.44.66-.44.66M150.09,15.29c.4.93.64,1.69.32,1.77-.6.2-1.59-1.25-2.11-1.86.38.82.34,2.01.34,2.01l-.84-.21s-1.45-1.19-1.98-1.13c.79,1.73.31,1.58.31,1.58,0,0-.95-.45-1.44-1.06.16.32.49.84.57,1.14,0,0-.28.31-.44.14-.16-.16-.78-.59-.78-.59l-.24.84s-.73-.58-1.12-.47c-.29.08-.12.62-.28.74-.25.09-2.15.77-1.52.66,1.29-.23,3.32-.52,4.22-.67.37-.06,1.37-.07,1.2-.09,3.57-.32,6.58.76,8.08,2.92.01,0,.02-.01.03-.01-.21-1.37-.53-2.69-.96-3.98-.26-.79-.55-.46-.79.19-.04.48-1.06.35-1.06.35,0,0-.36-.64-1.5-2.24M147.44,10.89c.03.16-2.47-1.44-3.25-.82.92-.02,2.59.93,2.38,1.27-.05.07-1.27-.26-2.34-.53-.68-.16-1.79.24-1.67.27,1.06.3,2.19.54,2.14.56-.4.22-1.91.02-2.84,1.23l-1.74,1.99,1.68-1.09c5.95-3.45,9.8-.79,9.96-.68-.7-1.31-1.78-2.71-2.46-3.36.32.66-1.35.9-1.35.9,0,0-1.23-1.25-1.64-1.35-.48-.18,1,1.03,1.11,1.61M133.51,2.72c-.05-.27-.07-.33,0,0h0"/>
      <g>
        <path class="cls-1" d="M70.78,89.79c.1.12.21.24.46.4.72.5,1.61.65,2.48.65,1.46,0,2.26-.54,2.26-1.34,0-.92-1.04-1.01-2.36-1.12-1.66-.14-2.24-.19-2.75-.65-.4-.38-.47-.8-.47-1.11,0-1.89,2.5-1.94,3.11-1.94.93,0,1.87.15,2.64.67.33.23.48.4.67.67l-.86.35c-.14-.14-.23-.24-.39-.35-.59-.42-1.33-.56-2.05-.56-.54,0-1.2.08-1.6.27-.46.23-.59.56-.59.84,0,.2.08.38.2.51.23.26.57.32,1.19.39.6.07,1.19.1,1.8.17.28.03.57.07.86.13.72.17,1.52.63,1.52,1.72,0,.27-.05.7-.34,1.11-.52.73-1.54,1.05-2.92,1.05-.55,0-1.24-.08-1.71-.2-1.36-.34-1.84-1.03-2.03-1.31l.87-.36Z"/>
        <path class="cls-1" d="M78.99,87.4c.3-.22.84-.6,1.98-.6,1.55,0,2.81.89,2.81,2.37,0,1.27-.91,2.42-2.63,2.42-.47,0-.97-.08-1.35-.22-.49-.18-.66-.36-.81-.51v2.48h-.89v-6.43h.89v.49ZM78.95,89.22c0,1.36,1.33,1.65,1.97,1.65,1.18,0,1.9-.71,1.9-1.72,0-.91-.72-1.65-1.93-1.65-.96,0-1.95.46-1.95,1.72Z"/>
        <path class="cls-1" d="M84.9,87.93c.2-.54.43-1.17,2.47-1.17.4,0,.97.05,1.39.16,1.03.28,1.03.94,1.03,1.45v1.67c0,.61,0,.87.51.87.11,0,.23-.02.34-.03v.61c-.29.03-.56.06-.79.06-.8,0-.85-.45-.88-.78-.11.17-.23.35-.62.56-.4.21-.96.34-1.56.34-1.89,0-2.18-1.07-2.18-1.58,0-.56.31-1.12,1.05-1.32.47-.12,1.37-.13,1.99-.13h1.3c0-.49,0-.86-.48-1.06-.19-.08-.54-.16-1.03-.16-.39,0-.77.03-1.12.17-.34.13-.43.29-.51.43l-.9-.08ZM87.28,89.32c-.53,0-1.02,0-1.31.12-.33.12-.48.37-.48.63,0,.42.37.9,1.32.9.15,0,.94-.02,1.51-.39.6-.4.64-.92.64-1.26h-1.67Z"/>
        <path class="cls-1" d="M95.03,84.86h4.52c.58,0,1.29.02,1.86.54.22.19.59.62.59,1.42,0,1.59-1.35,1.81-1.79,1.88l2.45,2.8h-1.23l-2.25-2.65h-3.21v2.65h-.94v-6.64ZM95.96,85.66v2.41h3.28c.52,0,1.18,0,1.55-.51.17-.22.23-.47.23-.71,0-.25-.07-.51-.2-.71-.3-.48-.78-.48-1.21-.49h-3.65Z"/>
        <path class="cls-1" d="M108.61,90.16c-.17.33-.32.62-.78.94-.7.47-1.53.54-1.94.54-1.46,0-2.81-.8-2.81-2.46,0-1.43,1.1-2.42,2.78-2.42s2.8,1.1,2.84,2.55h-4.71c.04.28.08.59.34.9.35.43.99.72,1.67.72.41,0,.85-.11,1.18-.34.32-.22.43-.42.57-.66l.86.24ZM107.7,88.64c-.11-.29-.45-1.21-1.78-1.21-1.4,0-1.79.95-1.9,1.21h3.68Z"/>
        <path class="cls-1" d="M110.07,90.2c.29.23.92.71,2.3.71.32,0,.81-.04,1.13-.15.28-.1.52-.29.52-.59,0-.43-.55-.53-.72-.56-.26-.04-1.56-.13-1.85-.17-.53-.05-1.71-.18-1.71-1.26,0-1.34,1.74-1.46,2.55-1.46,1.65,0,2.46.64,2.67.86l-.78.43c-.45-.31-1.1-.54-1.96-.54-.35,0-.72,0-1.04.14-.3.11-.45.29-.45.49,0,.43.61.5,1.16.56.45.06.9.08,1.35.12.25.02.5.05.73.1.18.05,1.01.26,1.01,1.22,0,1.17-1.25,1.55-2.53,1.55-1.14,0-2.37-.25-3.14-.96l.77-.51Z"/>
        <path class="cls-1" d="M118.82,86.79c1.6,0,3.01.78,3.01,2.43,0,1.56-1.36,2.42-2.99,2.42-1.93,0-3.01-1.02-3.01-2.35,0-1.51,1.26-2.48,2.98-2.49h0ZM116.73,89.23c0,.98.87,1.67,2.15,1.67,1.07,0,2.04-.63,2.04-1.67s-.93-1.71-2.15-1.69c-1.34.02-2.04.82-2.04,1.7Z"/>
        <path class="cls-1" d="M123,86.91h.89v.52c.66-.63,1.56-.65,1.77-.65.23,0,.35.03.54.07v.88c-.23-.07-.39-.11-.71-.11-.29,0-.57.04-.81.12-.78.29-.78.92-.78,1.27v2.49h-.9v-4.59Z"/>
        <path class="cls-1" d="M127.04,85.33h.88v1.57h1.29v.62h-1.3v2.46c0,.46,0,.8.62.8.22,0,.4-.03.65-.07v.79c-.29.03-.58.07-.88.07-1.26,0-1.25-.63-1.26-1.33v-2.73h-.79s0-.61,0-.61h.79v-1.57Z"/>
      </g>
    </g>
  </g>
</svg>