<?xml version="1.0" encoding="UTF-8"?>
<svg id="Capa_2" data-name="Capa 2" xmlns="http://www.w3.org/2000/svg" viewBox="0 0 216.6 106.21">
  <defs>
    <style>
      .cls-1 {
        fill: #9d9573;
        stroke-width: 0px;
      }
    </style>
  </defs>
  <g id="Capa_1-2" data-name="Capa 1">
    <g>
      <path class="cls-1" d="M77.86,32.35c-1.18-.72-2.13-1.22-3.01-1.85-5.4-3.85-6.28-11.58-1.61-17.17,2.24-2.68,5.15-4.79,7.78-7.17.09.05-.11-.14-.34-.19-10.31-2.29-20.68-4.14-31.32-3.46-14.15.9-26.93,5.28-37.39,15.21-6.01,5.7-9.38,12.66-9.2,21.08.11,5.32,2.11,9.79,6.33,13.16,2.62,2.09,5.62,2.75,8.88,2.4.7-.08,1.36-.49,2.03-.75-.04-.19-.09-.39-.13-.58-.53-.06-1.06-.12-1.58-.17-3.13-.31-4.51-3.28-2.73-5.87,1.55-2.26,5.31-3.21,7.72-1.97,2.67,1.38,2.7,5.94.03,8.33-2.12,1.9-4.63,2.67-7.44,2.55-7.28-.31-11.56-4.79-13.98-10.98C-1.96,35.01.28,25.86,6.58,17.62,14.25,7.59,24.76,2.57,37.03.77c11.74-1.73,23.3-.31,34.82,1.91,3.54.68,7.04,1.56,10.58,2.24.82.16,1.81.08,2.59-.24C96.75-.1,108.78-.99,121.02,2.25c2.6.69,5.06,2.08,7.43,3.4,1.64.91,2.49,2.56,2.13,4.53-.37,2.01-1.87,2.91-3.69,3.4-4.4,1.2-8.8.56-13.11-.29-7.97-1.58-15.88-3.43-23.84-5.08-.89-.18-2.07.02-2.85.48-3.84,2.29-7.15,5.17-9.13,9.31-1.52,3.19-2.18,6.53-1.25,10.01.81,3.04,2.53,4.04,5.63,3.91,3.31-.13,6.63.02,9.95.08.45,0,.95.07,1.33.29.49.28.88.74,1.31,1.13-.52.34-1.04.99-1.55.98-3.25-.09-6.55-.04-9.74-.6-2.9-.51-5.63-.49-8.43.31-10.28,2.96-19.89,7.29-28.29,14.02-6.55,5.26-11.28,11.73-12.4,20.3-1.28,9.77,1.96,16.84,12,20.18,9.5,3.17,19,2.64,28.34-.53,11.85-4.03,22.07-10.56,29.69-20.71,2.24-2.99,3.53-6.41,4-10.12.79-6.21-3.26-11.66-9.82-13.11-5.71-1.26-11.3-.36-16.74,1.44-14.53,4.83-26.13,13.52-34.37,26.52-.06.09-.15.17-.24.26.23-2.18,1.82-6.09,4.06-9.01,10.93-14.25,25.11-22.17,43.38-21.59,5.67.18,10.79,2.05,13.69,7.42,2.48,4.61,1.87,9.47.28,14.2-2.27,6.78-6.95,11.75-12.47,16.04-1.15.9-2.35,1.74-3.33,2.92,2.87-1.6,5.78-3.14,8.6-4.82,9.55-5.68,18.94-11.64,28.63-17.07,14.21-7.95,29.35-13.41,45.57-15.56,7.88-1.04,15.77-1.23,23.53.95,5.14,1.45,9.62,3.99,12.97,8.25,4.02,5.12,4.45,10.65,1.67,16.44-2.91,6.06-7.63,10.58-12.99,14.39-15.61,11.09-33.08,17.55-51.94,20.39-6.14.92-12.35,1.43-18.44-.08-2.78-.69-5.61-1.79-7.99-3.36-5.3-3.48-5.78-8.92-1.56-13.65,4.14-4.63,9.38-7.46,15.28-9.11,2.26-.63,4.62-.89,6.93-1.32.05.23.09.46.14.7-.58.12-1.16.23-1.74.35-6.46,1.29-12.44,3.62-17.19,8.37-3.12,3.12-3.7,7.08-1.38,10.09,1.13,1.47,2.55,2.84,4.11,3.82,4.69,2.97,10.06,3.64,15.4,3.27,21.14-1.47,40.6-7.88,57.72-20.64,4.44-3.31,8.34-7.19,10.86-12.23,4.57-9.11.71-18.24-9.03-21.36-5.67-1.81-11.5-1.96-17.35-1.44-18.34,1.62-35.42,7.6-51.89,15.47-12.35,5.9-24.49,12.22-36.86,18.07-8.23,3.89-16.71,7.28-25.79,8.71-10.9,1.72-21.62,1.53-31.62-3.92-6.84-3.73-11.83-8.96-12.08-17.28-.18-6.2,2.07-11.65,5.88-16.49,7.18-9.12,16.89-14.29,27.79-17.36,4.99-1.41,10.17-2.17,15.27-3.21.7-.14,1.41-.23,2.38-.38ZM90.22,6.85c10.79,3.31,21.19,5.96,32.05,6.19,1.51.03,3.1-.28,4.52-.79,2.38-.85,2.96-3.34,1.12-5.06-1.17-1.1-2.68-1.98-4.19-2.57-7.48-2.93-15.19-2.99-22.98-1.57-3.55.65-6.94,1.8-10.52,3.8Z"/>
      <path class="cls-1" d="M198.09,7.56c0,1.44-1.33,2.89-2.65,2.8-1.26-.09-1.77-.93-1.77-2.09,0-1.43,1.26-2.69,2.57-2.68,1.16,0,1.84.74,1.84,1.97Z"/>
      <path class="cls-1" d="M136.54,68.28h-2.13v-1.35h5.8v1.35h-2.13v6.12h-1.54v-6.12Z"/>
      <g>
        <path class="cls-1" d="M149.3,74.4h-1.46l-1.01-1.55c-.12.02-.24.03-.36.03h-.43v1.53h-1.26v-6.14h1.7c1.71,0,2.74.82,2.74,2.32,0,.96-.42,1.56-1.18,1.9l1.27,1.91ZM146.43,71.78c1.03,0,1.48-.32,1.48-1.19s-.47-1.21-1.48-1.21h-.4v2.4h.4Z"/>
        <path class="cls-1" d="M155.42,68.21h.11l2.81,6.19h-1.33l-.29-.69h-2.49l-.29.69h-1.22l2.7-6.19ZM156.27,72.65l-.44-1.06c-.18-.43-.37-1.1-.37-1.1,0,0-.18.67-.36,1.1l-.44,1.06h1.62Z"/>
        <path class="cls-1" d="M160.44,68.27h1.35l1.06,2.36c.23.52.48,1.39.48,1.39,0,0,.23-.86.47-1.39l1.03-2.36h1.23l-2.69,6.19h-.13l-2.8-6.19Z"/>
        <path class="cls-1" d="M169.79,68.27h4.06v1.11h-2.8v1.95h2.46v1.08h-2.46v.88h2.92v1.11h-4.19v-6.14Z"/>
        <path class="cls-1" d="M178.06,68.27h1.26v5.03h2.78v1.11h-4.04v-6.14Z"/>
        <path class="cls-1" d="M186.02,68.27h4.06v1.11h-2.8v1.95h2.46v1.08h-2.46v.88h2.92v1.11h-4.19v-6.14Z"/>
        <path class="cls-1" d="M198.82,74.4h-1.46l-1.01-1.55c-.12.02-.24.03-.36.03h-.43v1.53h-1.26v-6.14h1.7c1.71,0,2.74.82,2.74,2.32,0,.96-.42,1.56-1.18,1.9l1.27,1.91ZM195.95,71.78c1.03,0,1.48-.32,1.48-1.19s-.47-1.21-1.48-1.21h-.4v2.4h.4Z"/>
        <path class="cls-1" d="M202.2,73.19l1.03-.6c.27.44.62.77,1.25.77.52,0,.86-.26.86-.62,0-.43-.34-.59-.92-.84l-.32-.14c-.91-.39-1.52-.88-1.52-1.9,0-.95.72-1.67,1.85-1.67.8,0,1.38.28,1.8,1.01l-.98.63c-.22-.39-.45-.54-.81-.54s-.6.23-.6.54c0,.38.23.53.78.77l.32.14c1.07.46,1.68.93,1.68,1.99,0,1.14-.89,1.76-2.09,1.76s-1.93-.56-2.3-1.29Z"/>
      </g>
      <path class="cls-1" d="M216.43,30.57s-.09.07-.12.12c-.56.9-1.4,1.59-2.22,2.26-1.18.97-2.35,1.95-3.49,2.96-2.21,1.96-4.55,3.69-7.48,4.36-3.37.77-4.98-.7-4.57-4.12.64-5.33,3.13-9.67,7.37-12.9.88-.67,1.97-1.13,3-1.52,1.05-.4,2.21-.39,3.12.36.07.06.14.12.17.2.12.32-.33.65-.49.87-.26.36-.52.73-.74,1.12-.22.38-.87,1.22-.61,1.7.34.61,1.42,1.22,2.09,1.12.75-.11,1.64-.86,2.03-1.57,1.3-2.36-.37-4.83-3.37-5.12-2.76-.27-5.33.35-7.77,1.66-3.42,1.83-5.84,4.73-8.33,7.58-3.12,3.58-6.19,7.25-10.32,9.75-1.19.72-2.67,1.76-3.9.49-1.17-1.2-.11-2.61.58-3.77,2.74-4.57,5.54-9.1,8.31-13.65.33-.54.63-1.08.93-1.63.13-.23.2-.61-.13-.72-.14-.05-.29-.02-.43,0-1.42.24-3.26.26-4.37,1.32-3.45,3.33-6.44,7.14-9.78,10.6-1.29,1.34-2.64,2.61-4.02,3.85-1.29,1.15-2.59,2.43-4.06,3.35-.86.54-1.84.82-2.82,1.01-1.39.28-1.96-.45-1.56-1.81.29-.98.68-1.96,1.22-2.83,4.16-6.78,8.35-13.55,12.6-20.28.29-.45,1.09-.79,1.66-.81,1.85-.08,3.69.04,5.54-.03.39-.02,2.87.04,2.91-.43.01-.12.02-.25-.02-.36-.19-.47-1.61-.18-1.98-.17-.79.02-1.58.03-2.38.04-.79,0-1.59,0-2.38,0-.4,0-.79,0-1.19,0-.14,0-1.06-.09-1.11,0,1.76-2.72,3.26-5.04,4.83-7.46-2.06-.15-4.3.09-5.72,1.76-.55.65-.77,1.41-1.16,2.14-.39.72-.91,1.38-1.34,2.08-.34.56-.76,1.1-1.4,1.34-.86.32-1.84.06-2.73.3-.21.06-.24.45-.08.56.09.06.2.08.3.09.53.06,1.06.12,1.59.18.34.04.75.16.43.54-5,5.89-9.92,11.84-15.05,17.61-1.42,1.6-3.53,2.44-6.1,2.28.45-.64.84-1.05,1.07-1.54,1.05-2.26,2.48-4.46,2.99-6.85.92-4.25-1.67-6.73-5.97-6.21-.79.09-1.57.31-2.33.54-5.24,1.63-8.99,5.29-12.65,9.15-.55.58-1.1,1.15-1.66,1.72-.44.45-.89.91-1.34,1.36-1.52,1.52-3.11,2.97-4.62,4.49-1.18,1.19-2.48,2.54-4.26,2.59-.17,0-.34,0-.5-.07-.37-.16-.41-.7-.43-1.04-.02-.31,0-.61.02-.92.02-.36.03-.73.06-1.09.06-.68.17-1.35.35-2,.46-1.74,1.23-3.38,2.1-4.94,1.66-2.99,3.73-5.88,6.63-7.69.55-.34,1.29-.64,1.8-.25.37.28.45.81.67,1.22.43.81,1.53,1.18,2.36.79.83-.39,1.25-1.47.91-2.32-.18-.44-.52-.79-.91-1.05-.68-.46-1.51-.69-2.33-.63-1.8.13-3.22,1.52-4.46,2.83-1.54,1.62-3.08,3.25-4.63,4.87-.06-1.29.17-2.57.08-3.86-.09-1.28-.58-2.64-1.67-3.32-1.01-.62-2.33-.52-3.42-.05-1.23.54-2.23,1.49-3.19,2.43-2.11,2.04-4.21,4.08-6.32,6.13-.33.32-1.37,1.28-.96,1.78.34.42,1.35-.86,1.59-1.1,2.97-2.93,5.54-6.44,9.34-8.37.53-.27,1.22-.49,1.69-.11.44.36.4,1.02.31,1.58-.58,3.62-1.84,7.15-3.89,10.18-1.05,1.55-2.3,2.97-3.75,4.17-.7.58-1.45,1.11-2.23,1.58-.22.13-2.34,1.1-2.33,1.17-.05-.95-.29-1.95-.94-2.65s-1.79-1-2.59-.49c-.63.41-.91,1.2-.91,1.95,0,.6.16,1.22.57,1.66.53.57,1.36.73,2.13.74,1.28.02,2.56-.32,3.68-.95.94-.53,1.69-1.31,2.46-2.05.86-.83,1.7-1.68,2.55-2.52.42-.42.85-.84,1.27-1.26.22-.22.81-.6.84-.92-.12,1.24-.24,2.5-.06,3.74.18,1.24.71,2.47,1.67,3.26,1.47,1.21,3.26.75,4.76-.13,1.79-1.06,3.38-2.53,4.9-3.99,1.98-1.92,3.8-4,5.81-6.15,0,2.08-.08,3.89.02,5.69.21,4.12,2.89,6.03,6.91,5.03,2.53-.63,4.58-2.01,6.41-3.82.5-.49,1.2-1.11,1.81-1.11,4.32.04,7.31-2.22,9.9-5.35,1.53-1.85,3.18-3.6,4.77-5.4-.93,1.98-2.11,3.73-3.17,5.55-1.26,2.16-2.09,4.45-1.9,7.02.16,2.12,1.49,3.59,3.56,3.28.93-.19,1.84-.36,2.73-.73.95-.39,1.68-1,2.45-1.66,3.63-3.1,6.86-6.69,10.23-10.07.67-.67,1.32-1.35,1.96-2.03.35-.37.67-.78,1.01-1.16.18-.2.36-.39.56-.57.11-.1.62-.35.6.03,0,.06-.04.11-.07.16-.66.91-1.31,1.83-1.94,2.76-1.34,2-2.45,4.01-3.13,6.34-.49,1.7-1.24,3.99-.13,5.58.95,1.37,2.77,1.63,4.28,1.18,1.56-.31,2.95-1.63,4.13-2.62,1.43-1.2,2.87-2.39,4.27-3.64.65-.58,1.24-1.23,1.83-1.87.29-.32.57-.64.86-.96.1-.11.8-.73.78-.86.39,2.21.57,4.44,1.2,6.52.75,2.47,2.67,3.59,5.25,3.6h.07c2.16,0,4.26-.64,6.01-1.9,1.79-1.29,3.37-2.89,4.93-4.41.68-.66,1.36-1.33,2.03-2,.07-.07.14-.13.2-.2.05-.05.1-.1.16-.15.19-.18.38-.36.56-.54.37-.35.75-.69,1.13-1.03.07-.06.13-.12.17-.2s.05-.18,0-.25c-.02-.03-.06-.06-.1-.06-.01,0-.03,0-.04,0ZM145.98,38.72c-.91.65-2.03,1.06-3.11,1.38-2.6.76-3.69-.14-3.6-3.72,1.09-5.59,3.97-10.99,9.84-14.33,1.03-.58,2.76-.68,3.85-.22,1.43.6,1.44,2.28,1.23,3.78-.79,5.59-3.69,9.88-8.21,13.11Z"/>
    </g>
  </g>
</svg>