<?xml version="1.0" encoding="UTF-8"?>
<svg id="Capa_2" data-name="Capa 2" xmlns="http://www.w3.org/2000/svg" viewBox="0 0 183.77 103.53">
  <defs>
    <style>
      .cls-1 {
        fill: #707071;
      }

      .cls-1, .cls-2 {
        stroke-width: 0px;
      }

      .cls-2 {
        fill: #e5a142;
      }
    </style>
  </defs>
  <g id="Capa_1-2" data-name="Capa 1">
    <g>
      <path class="cls-1" d="M135.28,84.37c-2.54,0-4.12-1.69-3-3.36l15.31-24.59c10.23-6.9,18.71-6.07,22.78-5.14,3.5.79,5.6,2.05,7.19,3.25.3.21.43.69.73,1.03.26.34.86-.13.6-.61-.13-.34-.6-.72-.94-.98-2.02-1.5-4.27-2.4-7.19-3.17-2.67-.72-7.96-1.35-12.22-.28-3.71.94-8.81,2.77-12.68,5.64-4.95,3.64-15.81,13.82-22.92,22.43l2.91-15.68c.34-2.23,1.18-2.48-1.33-2.48,0,0-4.43-.47-9.4.38-.79.16-.6.71-.27.76,4.26-.8,7.3-.37,7.73.15.64.75.81,1.93.12,3.28,0,.01-.07.12-.07.14-.38.7-.82,1.41-1.25,2.03,0,0-4.29,5.98-7.86,11.43-2.79,4.26-6.13,9.68-11.06,14.83-3.95,4.07-11.25,9.31-16.89,9.28-.23,0-.46,0-.69-.02-8.31-.49-11.68-5.59-12.83-7.73-.02-.03-.45-1.91-.87-2.11-.54-.23-1.1.02-1.1.7,0,.07,0,.15.02.24,0,0,.48,1.02.59,1.13,1.21,2.49,5.7,8.12,12.87,8.59.24.01.49.02.73.02,8.32-.02,14.06-4.75,18.92-9.6,3.96-3.98,8.7-10.11,11.7-14.68,2.32-3.54,6.51-9.72,8.33-12.39l-3.46,16.7c-.08,1.45.65,1.24,1.07.68,8.7-10.4,15.92-18.59,22.82-24.41l-12.65,19.65c-2.75,4.28-2.58,4.77-4.79,4.88-.35.02-.3.56,0,.56h9.05c.39,0,.39-.56,0-.56M175.74,75.72c-.38,1.99-4.56,6.63-6.89,7.61-.68.3-1.29.37-1.7.03-.27-.26-.45-.71-.3-1.39.49-2.75,4.33-6.48,6.82-7.53.56-.23,1.24-.45,1.73-.04.37.3.49.72.34,1.32M180.07,74.25c.3-.41.19-.75-.42-.75h-1.09c-.68,0-.79.11-1.17.64l-.94,1.2c-.26-1.13-.68-1.58-1.58-1.77-2.18-.45-6.25,1.28-8.62,3.76-1.47,1.58-2.11,3.39-1.69,4.97.26,1.05.9,1.77,1.65,1.92,2.14.52,4.97-1.28,6.78-3.39-.12,1.09-.16,1.88.3,2.6.57.82,1.4.98,2.26.9.5-.03,1.14-.23,1.84-.55.32-.29.13-.66-.23-.5-.48.22-.87.35-1.08.37-.41.04-.71,0-1.01-.45-.57-.87.94-2.98,2.33-5.01l2.68-3.95ZM147.34,75.72c-.38,1.99-4.55,6.63-6.89,7.61-.68.3-1.28.37-1.69.03-.27-.26-.45-.71-.3-1.39.49-2.75,4.33-6.48,6.81-7.53.57-.23,1.25-.45,1.73-.04.37.3.49.72.34,1.32M151.67,74.25c.3-.41.19-.75-.42-.75h-1.09c-.68,0-.79.11-1.17.64l-.94,1.2c-.26-1.13-.68-1.58-1.58-1.77-2.19-.45-6.25,1.28-8.62,3.76-1.47,1.58-2.1,3.39-1.69,4.97.26,1.05.9,1.77,1.65,1.92,2.15.52,4.97-1.28,6.78-3.39-.11,1.09-.15,1.88.3,2.6.57.82,1.4.98,2.26.9.5-.03,1.14-.23,1.84-.55.32-.29.13-.66-.23-.5-.48.22-.86.35-1.08.37-.42.04-.72,0-1.02-.45-.56-.87.95-2.98,2.34-5.01l2.68-3.95ZM175.18,69.96c1.27,0,2.77.6,3.36,1.09.15.15.3.34.37.49.22.37.52.37.63.22.15-.22.08-.52-.18-.71-.19-.11-.45-.3-.56-.37-.71-.56-2.16-1.16-3.62-1.16-4.48,0-8.97,2.5-13.64,8.41l-3.4,4.18.23-5.61c.15-2.65.15-2.73,4.49-2.73.33,0,.33-.49,0-.49h-9.53c-.38,0-.41.49,0,.49,2.47,0,2.61,0,2.5,2.69l-.34,6.51c-.04,1.53-.11,2.69-.11,2.69-2.66,3.79-7.54,7.62-12.53,7.62-5.64,0-8-3.22-9.01-4.9-.11-.11-.11-.3-.15-.56-.08-.3-.34-.44-.56-.33-.26.15-.35.52-.14.85.13.2.34.37.41.49,1.05,1.79,3.8,5.2,9.41,5.2s10.4-4.42,11.22-5.48l8.22-10.58c4.37-5.65,8.97-8,12.93-8"/>
      <path class="cls-1" d="M18.8,68.89l4.32-6.48c2.79-4.23,3.64-5.5,7.62-5.5,1.23,0,2.91.18,4.19,1.27,1.11.95,1.4,2.69.8,4.01-1.69,3.77-6.4,6.7-11.27,6.7h-5.67ZM57.32,96.1c-.18.25-.19.72-.42.86-.94.77-2.55,1.47-5.57,1.66-4.01.26-7.88-1.65-10.89-4.3-2.25-1.93-5.57-7.76-7.83-13.65-1.77-4.62-2.63-8.76-7.67-11.14,3.09,0,5.33-.34,8-1.4,2.42-.98,5.25-2.96,5.98-5.55.38-1.31.04-3.01-.76-4.07-1.78-2.29-5.64-2.2-7.62-2.2h-10.64c-.38,0-.34.55,0,.55,2.96,0,3.73.08,3.94.68.26.51-.38,1.35-1.48,3l-14.42,19.93c-2.03,3.05-3.18,3.68-7.71,3.68-.34,0-.26.55,0,.55h13.11c.42,0,.34-.55,0-.55-2.93,0-3.68-.08-3.94-.68-.21-.51.3-1.18,1.53-3l7.5-10.99h3.64c3.9,0,5.12,3.51,6.69,8,.49,1.41,1.25,3.83,2.32,6.57.18.47.89,2.04,1.51,2.95,1.18,1.75,3.87,6.71,7.12,8.7,3.47,2.13,7.7,3.72,11.7,3.46,2.67-.18,4.98-1.04,5.91-1.81.22-.21.49-.31.75-.56.26-.21.39-.62.17-.88-.25-.3-.68-.15-.93.18M46.66,75.12s1.76-.57,2.54-.63c.55-.04.84-.02.97.13.22.27.11.94-1.42,2.92l-.45.6c-1.3,1.68-2.2,3.4-1.68,4.78.45,1.01,1.04,1.39,1.87,1.46,2.69.37,4.11-1.27,6.61-4.52l1.49-1.91s-.03,0-.04,0c.78-.99,1.94-2.39,1.98-2.44.13-.14.39-.29.82-.51.14-.09.31-.38.2-.57-.17-.23-.47-.15-.65,0-.27.32-.52.52-.67.69-.17.18-1.87,2.14-2.75,3.37l-.76.96c-1.23,1.61-3.44,4.56-5.01,4.41-.56-.08-.9-.34-1.08-.75-.52-1.2.45-2.66,1.57-3.96l.45-.52c.97-1.12,2.13-2.95,1.42-4-.48-.69-1.64-.8-2.81-.67-.87.1-2.65.69-2.65.69-.34.08-.22.56.04.49M39.36,81.12c-1.44,2.34-1.49,2.46-3.21,2.61-.27.02-.27.5,0,.5h6.28c.34,0,.26-.5,0-.5-2.05,0-.99-1.74-.61-2.31l2.24-3.64c.49-.84,1.48-2.24.76-3.3-.65-.98-2.92-.72-3.98-.53h-.06c-.3.12-.28.62.12.53h0c1.26-.19,1.78-.23,2.01,0,.23.27.23.53-.3,1.4l-3.27,5.24ZM46.76,69.74c.26.19.64.11.95-.04.45-.23.76-.68.79-1.1.08-.41-.08-.68-.26-.87-.23-.15-.57-.19-.95-.08-.64.27-.99.8-.99,1.29.04.42.27.69.46.8M64.38,77.78c.49-.84,1.48-2.24.76-3.3-.64-.98-2.92-.72-3.98-.53h-.06c-.3.12-.28.62.12.53h0c1.25-.19,1.78-.23,2.01,0,.22.27.22.53-.31,1.4l-3.26,5.24c-1.44,2.34-1.49,2.46-3.21,2.61-.26.02-.26.5,0,.5h6.29c.34,0,.26-.5,0-.5-2.05,0-.99-1.74-.61-2.31l2.24-3.64ZM67.07,69.74c.27.19.64.11.94-.04.46-.23.76-.68.8-1.1.07-.41-.08-.68-.27-.87-.23-.15-.57-.19-.95-.08-.64.27-.98.8-.98,1.29.04.42.27.69.46.8M73.37,74.24c.67-.19,1.01.23,1.16.49.15.3.23.9-.04,1.43-.52,1.09-1.16,1.96-4.89,2.86,0,0-.75.22-1.17.3.87-2.18,2.94-4.59,4.94-5.08M74.02,82.2s-.19.03-.27.07c-.72.41-1.48.78-2.38,1.12-.98.37-2.07.11-2.78-.6-.6-.64-.64-1.54-.53-2.19.08-.37.08-.49.16-.68l1.54-.37c2.56-.68,5.3-1.28,6.81-3.31.49-.64.49-1.21.26-1.65-.3-.61-1.01-.9-1.58-.98-2.25-.3-5.94,1.16-8.47,4.21-1.12,1.36-1.69,3.28-1.28,4.48.3,1.05,1.28,1.77,2.22,2,2.09.48,4.33-.31,6.35-1.53.16-.06.3-.43-.04-.57M98.75,75.36c-.38,2.02-4.63,6.73-6.99,7.72-.69.31-1.3.38-1.72.04-.27-.27-.46-.73-.31-1.41.5-2.79,4.39-6.58,6.92-7.64.57-.23,1.26-.46,1.75-.04.38.31.5.73.35,1.34M103.15,73.87c.3-.42.19-.77-.43-.77h-1.11c-.69,0-.8.12-1.19.65l-.95,1.22c-.26-1.14-.69-1.6-1.6-1.79-2.22-.46-6.34,1.3-8.75,3.82-1.49,1.6-2.14,3.44-1.72,5.04.26,1.07.91,1.8,1.68,1.95,2.17.53,5.04-1.3,6.88-3.44-.12,1.11-.15,1.91.3,2.64.58.84,1.41.99,2.3.92.5-.03,1.15-.24,1.86-.56.32-.3.13-.68-.24-.52-.49.23-.87.36-1.09.38-.42.04-.73,0-1.03-.45-.57-.88.96-3.02,2.37-5.09l2.72-4.01ZM83.96,78.42c2.71-4.32,11.32-10.82,16.57-7.63.58.35.76.77,1.2.98.1.06.73-.07.13-.59-2.85-2.4-9.46-2.77-16.28,3.99,0,0,.2-.57-.19-1.11-.66-1.03-2.98-.72-4.07-.53l-2.13.31c-.35.07-.23.57.08.5l2.13-.27c1.28-.19,1.82-.23,2.06,0,.23.27.23.54-.31,1.41l-3.33,5.28c-.73.81-1.52,2.57-4.09,2.64-.27,0-.27.49,0,.49h8.21c.34,0,.27-.49,0-.49-2.1,0-2.46-1.16-1.6-2.33l1.63-2.63Z"/>
      <path class="cls-1" d="M64.52,38.61c.47,0,.47-.61,0-.61h-18.69c-.47,0-.47.61,0,.61h3.71c2.11,0,4.83-.14,5.58,1.12.8,1.36-.09,2.26-1.08,3.76-3.62,5.58-9.15,8.45-13.89,8.45-1.88,0-5.3-.8-6.48-2.91-1.92-3.52-.23-9.43,2.21-13.37,4.08-6.71,12.48-13.28,18.58-13.05,1.97.09,4.11.5,5.44,2.86.97,1.71,1.13,4.56-1.55,8.73-.28.47.28.85.66.33l7.93-10.66c.24-.33-.28-.75-.61-.33-.89,1.13-1.55,1.65-2.68,1.93-1.92.37-2.86-1.41-5.21-2.59-4.83-2.39-11.17.1-15.4,2.59-6.52,3.8-12.01,10.47-12.25,16.9-.09,2.2.05,6.57,3.24,8.73,3.43,2.35,9.2,1.46,12.16.14l.66-.28c1.55-.66,1.6-1.04,2.39-.75.66.23.66.85.61,1.03-.08.35-.26.76-.53,1.18h-.01c-1.46,2.05-3.31,3.64-5.18,4.34-1.68.63-2.53.49-3.58.27-.39-.1-.66-.42-1.18-.6-.22-.12-.55-.15-.68.21-.16.32.02.61.23.79.47.4,1.07.32,1.27.4,2.78.59,6.27-1.39,8.15-3.16.17-.17.34-.34.5-.51h0c.45-.47.86-.94,1.23-1.41-.01,0-.03-.01-.04-.02,1.06-1.33,2.17-2.83,3.31-4.54l2.53-3.8c4.25-5.59,2.43-5.73,7.23-5.78h1.41ZM130.05,47.64c-.76.28-1.47.41-2.08.35-.62-.07-1.09-.36-1.31-.95-.69-1.84,1.96-6.34,3.44-8.12h4.05c.29,0,.32-.47,0-.47h-3.8s.07-.12.11-.2c.69-.96,3.5-4.24,6.08-7.03,3.42-3.71,11.79-8.05,14.75-8.53,2.78-.48,5.65-.24,6.77.27.2.12.34.24.54.44.27.2.63.3.75.09.16-.21-.81-.74-1.16-.91-1.57-.69-3.91-.86-7.01-.35-3,.51-10.94,3.84-15.3,7.69-2.74,2.42-5.76,5.49-7.98,8.55h-2.81c-.33,0-.36.47,0,.47h2.52c-.49.75-.98,1.5-1.43,2.23h0c-1.26,2.06-2.17,4.03-1.42,5.82.51,1.08,1.27,1.48,2.32,1.59.91.12,1.9,0,2.94-.34.32-.12.35-.3.32-.44-.03-.16-.24-.14-.3-.15M136.38,38.49h-.05c-.28.11-.27.59.11.51h0c1.2-.18,1.7-.22,1.91,0,.21.26.21.51-.29,1.33l-3.1,4.98c-1.37,2.22-1.42,2.34-3.05,2.48-.25.03-.25.47,0,.47h5.98c.32,0,.25-.47,0-.47-1.95,0-.94-1.65-.58-2.2l2.13-3.46c.47-.79,1.4-2.13.72-3.14-.61-.94-2.78-.69-3.78-.5M142.5,32.51c-.61.25-.94.76-.94,1.22.04.4.25.65.44.76.25.18.61.11.9-.03.43-.22.72-.65.76-1.05.07-.39-.08-.65-.26-.82-.22-.15-.54-.18-.9-.08M67.89,38.84c.65-.17.97.22,1.12.47.14.28.22.87-.04,1.37-.51,1.04-1.12,1.88-4.69,2.74,0,0-.72.22-1.12.29.83-2.09,2.82-4.4,4.73-4.87M68.53,46.48s-.19.02-.27.06c-.69.39-1.43.75-2.29,1.07-.94.36-1.99.11-2.67-.58-.58-.61-.61-1.48-.51-2.09.07-.36.07-.47.15-.65l1.48-.36c2.45-.65,5.09-1.22,6.53-3.18.47-.61.47-1.16.25-1.59-.28-.58-.97-.87-1.51-.94-2.17-.29-5.71,1.12-8.13,4.04-1.08,1.3-1.63,3.14-1.22,4.3.29,1.01,1.22,1.7,2.13,1.91,2,.46,4.15-.29,6.09-1.46.16-.06.29-.42-.04-.54M95.87,38.84c.65-.17.97.22,1.12.47.14.28.22.87-.04,1.37-.51,1.04-1.12,1.88-4.69,2.74,0,0-.73.22-1.13.29.83-2.09,2.81-4.4,4.73-4.87M96.5,46.48s-.19.02-.27.06c-.69.39-1.42.75-2.29,1.07-.94.36-1.98.11-2.67-.58-.58-.61-.61-1.48-.51-2.09.07-.36.07-.47.15-.65l1.48-.36c2.46-.65,5.1-1.22,6.53-3.18.48-.61.48-1.16.26-1.59-.29-.58-.97-.87-1.51-.94-2.17-.29-5.71,1.12-8.13,4.04-1.08,1.3-1.62,3.14-1.23,4.3.29,1.01,1.23,1.7,2.13,1.91,1.99.46,4.15-.29,6.09-1.46.16-.06.29-.42-.04-.54M170.64,40.93c-.14-1.05-.57-2.34-1.69-2.63-1.98-.58-4.14.83-6.23,2.56,0,0,.25-1.08-.33-1.8-.76-.94-2.77-.69-3.78-.51l-1.98.29c-.32.07-.21.54.08.47l1.98-.25c1.19-.18,1.69-.22,1.91,0,.22.25.22.5-.29,1.33l-3.1,4.96c-1.44,2.34-1.76,2.49-5.58,2.49-.25,0-.25.47,0,.47h9.03c.33,0,.26-.47,0-.47-1.04,0-1.48,0-1.69-.36-.18-.33-.03-.69.25-1.26,1.66-3.78,6.52-7.56,8.32-7.52.61,0,.97.47,1.11.9.41,1.08-.69,3.49-1.72,5.32-.2.35-.51.93-.8,1.5-.19.34-.4.68-.61,1.01-.36.34-.73.39-1.59.42-.26,0-.26.45,0,.45h5.58c.33,0,.26-.45,0-.45-1.07,0-.96-.98-.56-1.58.09-.14.26-.4.44-.69h0c.92-1.56,1.42-3.16,1.25-4.65M87.35,40.97c-.14-1.04-.57-2.33-1.68-2.62-1.97-.57-4.12.83-6.2,2.54,0,0,.26-1.07-.32-1.79-.75-.94-2.76-.68-3.76-.5l-1.97.28c-.32.07-.21.54.08.47l1.97-.25c1.18-.18,1.68-.22,1.9,0,.21.25.21.5-.29,1.32l-3.08,4.95c-1.44,2.33-1.76,2.47-5.56,2.47-.25,0-.25.46,0,.46h8.99c.32,0,.25-.46,0-.46-1.04,0-1.47,0-1.68-.35-.18-.33-.04-.68.25-1.26,1.65-3.76,6.48-7.52,8.27-7.48.61,0,.97.46,1.11.89.41,1.08-.69,3.47-1.72,5.29-.2.35-.51.92-.79,1.49-.2.34-.4.68-.61,1.01-.36.35-.72.38-1.58.42-.26,0-.26.45,0,.45h5.55c.33,0,.26-.45,0-.45-1.06,0-.95-.98-.55-1.57.09-.15.26-.4.44-.69h0c.92-1.56,1.41-3.15,1.24-4.63M152.59,41.33c-.51,2.48-2.78,5.07-5.51,6.3-.61.29-1.94.65-2.63.29-.58-.4-.86-1.01-.89-1.73-.11-1.73.97-3.89,2.95-5.44,1.26-1.12,2.88-1.84,3.99-2.01.65-.11,1.33.07,1.69.47.51.57.58,1.4.4,2.12M154.82,42.91c.29-1.08.21-2.16-.58-3.13-1.44-1.62-3.82-1.8-5.69-1.44-.9.15-2.23.58-3.03.97-2.37,1.22-4.03,2.99-4.32,5.33-.11,1.19.18,2.24,1.19,2.99,1.73,1.4,5.22.83,6.52.47,2.19-.72,5.14-2.56,5.9-5.18M119.42,40.25c-.37,1.92-4.4,6.39-6.65,7.34-.66.29-1.24.36-1.63.04-.26-.26-.44-.7-.29-1.35.47-2.65,4.17-6.25,6.57-7.26.54-.22,1.2-.44,1.67-.04.36.29.47.69.33,1.27M123.2,38.11h-1.05c-.65,0-.76.11-1.12.62l-.91,1.16c-.25-1.09-.65-1.52-1.52-1.71-2.11-.43-6.03,1.24-8.32,3.63-1.42,1.53-2.03,3.27-1.63,4.79.25,1.02.87,1.71,1.59,1.85,2.07.51,4.79-1.23,6.54-3.27-.11,1.05-.15,1.82.29,2.51.55.8,1.34.94,2.18.87.48-.02,1.1-.22,1.77-.52.3-.28.12-.64-.22-.49-.46.22-.83.35-1.04.36-.41.04-.69,0-.98-.43-.54-.84.91-2.87,2.25-4.83l2.58-3.82c.29-.4.18-.72-.4-.72M105.37,43.16c2.57-4.11,10.76-10.28,15.74-7.25.55.34.72.73,1.14.93.1.06.69-.07.12-.55-2.7-2.29-8.99-2.63-15.46,3.79,0,0,.19-.54-.18-1.05-.63-.98-2.84-.69-3.86-.51l-2.02.28c-.33.08-.22.55.08.48l2.02-.26c1.22-.18,1.73-.22,1.95,0,.22.26.22.51-.29,1.34l-3.17,5.01c-.69.77-1.44,2.44-3.89,2.51-.25,0-.25.47,0,.47h7.8c.33,0,.26-.47,0-.47-1.99,0-2.33-1.1-1.52-2.22l1.55-2.5ZM183.68,39.75c-.11-.22-.29-.45-.35-.52-.36-.43-2.38-2.08-4.79-.61-1.08.66-2,1.81-2.05,3.12-.03.69.21,1.25.4,1.9.21.73.34,1.51.27,2.28-.04.39-.12.94-.39,1.25-.99,1.14-2.4,1.13-3.63.34-.89-.57-1.77-2.11-1.42-3.59.05-.18-.09-.22-.27-.26-.41-.05-.38.6-.37.91.02,1.72.99,3.37,2.65,3.98,1.5.55,3.25.14,4.37-1.01.47-.48.94-1.07,1.13-1.72.16-.53.12-1.11.06-1.65-.04-.34-.36-1.62-.41-1.93-.16-.9-.42-2.25.59-3.21.33-.3.92-.49,1.37-.49.64,0,1.3.26,1.75.7.07.06.14.17.22.3.21.34.46.78.76.73.27-.04.22-.27.1-.51"/>
      <path class="cls-2" d="M120.83,25.09c-.36-.33-.2-1.1-.02-1.56-.16.12-.3.5-.38.7-.27.27-.33.05-.46-.18-.27-.61.25-.77.19-1.47-.31.16-.26.43-.47.69-.2.27.07-1.13.1-1.48-.28.24-.44.6-.52,1.04-.48-.24-.1-1.26-.3-1.65.02.2-.32,1.06-.46.81-.2-.34-.27-1.26-.28-1.58-.3.16-.11.62-.31.88-.21.16-.27-.45-.27-.45,0,0-.22-.68-.05-1.22-.46.24-.35.94-.35.94l-.43-.73s.09-1.59-.12-1.05c-.15.38-.16.68-.16.77,0-.02,0-.06,0-.11-.17.19-.35-.11-.35-.11,0,0-.4-.4-.58-.29.23.4,3.42,3.79,3.63,8.3-.06-.11-.16-.17-.29-.2-.18-.05-.4-.06-.59-.13-.1-.04-.19-.09-.26-.17-.11-.14-.18-.62-.1-1-.22.05-.52.65-.72.42-.11-.54-.09-1.08-.11-1.48,0,.05-.19.31-.22.39-.05.15-.11.3-.16.45-.09-.17-.16-.34-.24-.55.08-.33.12-.68.09-1.01,0,.05-.36.52-.39.6,0,.03-.02.06-.03.09-.43-.47-.57-.96-.57-.96l.14-1.12s-.36.75-.5.58c-.14-.17-.08-.23-.1-.64,0-.19-.03-.73-.04-.75,0,.05-.24.96-.24.96,0,0-.4-1.46-.71-1.59-.03.26-.06.52-.09.81-.47,4.02-1.34,7.7-2.43,10.69,4.04-1.01,7.49-3.5,9.75-6.86-.02-.03-.03-.07-.04-.11-.33-.54.25-1.17.33-1.89-.35.57-.65.92-.87,1.22M123.65,15.11c-.14.58.19.86.18,1.54-.35-.07-.52-.55-.96-1.21-.19.03-.16.88-.18,1.14-.43-.36-.49.04-1.06-1.55-.12-.08-.36-.31-.36-.31,0,0,.26,1.04.37,1.33-.36.24-1.58-.37-1.58-.37,0,0-.04-.91-.19-1.24-.27.22-.2,1.01-.19,1.01l-.54-.13s.02.04.02.07c-.01-.01-.04-.07-.03-.09-.13-.53-.24-.81-.52-1.17.05.42,0,.84,0,.84,0,0-.51-.39-.75-.35-.08-.31-.23-.32-.46-.44-.06.4-.17.21.07.39l.11.07c2.62,1.53,4.06,3.47,4.66,5.31.27.7.75,2.53.56,3.27.02,0,0,.16,0,.17.92-2.06,1.45-4.34,1.45-6.75,0-.24-.11-.32-.12-.55-.19-.34-.33-.7-.47-.95M111.4,22.07s-.11.18-.23.29c-.1.09-.5-.86-.64-.78.11.25.25.54.18.84-.38.26-.79.8-.85.79-.33-.09-.2-.61-.45-1.6-.48.36-.22,1.28-.27,2.17-1.04.8-.69-.46-.91-.82-.6.21-.21.84-.44,1.51-.35.5-.46.2-.56-.29-.63.46-.18.5-.44,1.41-.33-.65-.42-.69-.53.65-.43.77-.45-.15-.42-.52-.23.29-.05.9-.27,1.57,0,.17-.22-.31-.35-.18-.07.06-.04.5-.08.78-.43.77-.7.35-.67-.02-.18.12,0,1.09-.08,1.21-.26.36-.27.38-.7.68.06-4.23,1.62-7.21,4.04-9.4,0-.09.82-.78.83-.85.04-.24-.71.21-.77.26-.23.2-.31.45-.57.87-.48.32-.32-.42-.15-.95l-.41.62c-.1.35-.19.76-.43.98-.29.07-.32.09-.52.13-.61.15-.02-1.51-.24-1.56-.22-.04-.37,1.44-.89,1.81-.18.13-.38-.93-.58-.78-.18.13-.8,1.2-.99,1.33-.23.17-.32-.57-.52-.4-.5.39-.61.72-.8.94-.04-.27-.22-.53-.44-.48-.44.56-1.27,1-1.22.9,1.67-3.95,5.04-5.72,6.79-6.41.68-.26,3.03-.5,3.03-.5,0,0-.41-.08-.33-.17.36-.54-1.38.21-1.65.17-.35-.06.3-.57.14-.6-.16-.03-.65.6-.81.7-.16.1-.38-.03-.51-.11-.14-.08.13-.69.19-.84-.5.19-.7.97-1,.94-.17-.02-.1-.69-.03-1.02-.67-.34-.47.45-.76.92-.35-.08-.89-.21-.89-.21v-1.06s-.94.87-.94.87c0,0,.03-.45.25-1.12-.54.49-.69.97-.85.92-.15-.06.17-.81-.14-.81-.16,0-.73.8-.93.79-.08,0-.48-.05-.6-.08,0-.38.08-.48.22-1.03-.59,0-.53.58-.95.89-.08.06-.97.01-1.04.06.04-.28.25-.45.31-.94-.52.12-.93,1.06-1.68,1-.68.25.78-.78,1.15-1.3-.19-.02-1.57,1-1.78,1.04-.39.08-.41-.35-.51-.6,5.16-4.45,13.22-2.13,13.62-2.26-.55-.37-2.13-.69-2.65-.84-.11-.22.98-.33,1.13-.44-.29-.4-1.64.4-2.11.22-.51-.07.71-.45.44-.58-.09-.04-1.07.23-1.16.18-.29-.14-.69-.26-.84-.34-.76-.38.85-.45,1.26-.48-.33-.32-.62-.11-1.14-.14-.4-.02-1.4.2-1.83.13,1.12-.67,1.71-.37,1.23-.85-.21-.22-1.63.33-1.92.44-.29.11,1.05-1.13.8-1.13s-1.97.72-2.16.76c.38-.37,1.35-1.16,1.76-1.19-.21-.09-1.48.44-2.29.56-.19.03-.36-.24-.49-.23,1.27-1.64,7.84-2.07,11.13.79.21-.52-1.14-1.61-1.89-1.94-.32-.3-.29-.83-.32-.89-.11-.22,1.62.7,1.62.7,0,0,.04.01.08,0,0-.03.02-.06.02-.09-.36-.54-1.58-1.07-2.18-1.58-.16-.14,1.16.17.81-.01-.61-.35-1.02-.54-1.01-.67.33-.06.96-.03,1.78.54-.35-1.01-2.01-1.58-2.01-1.58.22-.28,1.54-.17,1.81,0-.27-.28-1.48-.73-1.66-.87-.17-.15-.46-1.35-.46-1.35,0,0,.88.06,1.69.73-.58-.73-1.31-1.23-1.08-1.18,2.07.38,2.98,1.22,3.56,2.01.27.36-.6-1.36-.14-1.01.72.56,1.65,2.1,1.81,3.06.1.64.18,1.15.24,1.59,0,.02,0,.03.02.05.72-1.85,2.4-2.23,3.44-2.23-.01,0,1.46.16,1.61.12-3-2.92-7.09-4.73-11.6-4.73-9.18,0-16.62,7.44-16.62,16.62s6.82,15.9,15.5,16.45c2.58-3.28,4.84-7.84,5.18-11.44,0-.06-.29.44-.29.44M121.14,10.26c.26.62.43,1.13.22,1.19-.41.14-1.07-.84-1.42-1.24.25.55.22,1.34.22,1.34l-.56-.14s-.97-.8-1.33-.76c.53,1.16.21,1.06.21,1.06,0,0-.64-.3-.96-.71.1.21.33.56.38.77,0,0-.19.21-.3.09-.11-.11-.52-.4-.52-.4l-.16.56s-.5-.39-.75-.32c-.19.05-.08.42-.19.5-.17.06-1.45.52-1.02.44.87-.16,2.23-.35,2.84-.45.24-.05.92-.05.8-.07,2.4-.22,4.43.51,5.43,1.96h.01c-.14-.93-.35-1.82-.64-2.68-.18-.53-.37-.31-.53.12-.03.33-.72.24-.72.24,0,0-.24-.43-1.01-1.5M119.36,7.31c.02.1-1.65-.96-2.19-.55.61,0,1.74.63,1.61.85-.03.05-.86-.17-1.57-.35-.46-.11-1.2.16-1.13.18.71.2,1.48.36,1.44.38-.27.15-1.28,0-1.9.83l-1.17,1.33,1.14-.73c4-2.32,6.58-.53,6.69-.46-.47-.88-1.2-1.82-1.65-2.26.21.44-.91.61-.91.61,0,0-.83-.84-1.1-.91-.33-.12.67.69.75,1.08M110,1.82c-.03-.18-.04-.22,0,0h0M124.33,17.01c0,.14.02.27.02.42,0,0,0,.02.02.03l-.04-.44Z"/>
    </g>
  </g>
</svg>