<?xml version="1.0" encoding="UTF-8"?>
<svg id="Capa_2" data-name="Capa 2" xmlns="http://www.w3.org/2000/svg" viewBox="0 0 222.71 93.01">
  <defs>
    <style>
      .cls-1 {
        fill: #40403f;
        stroke-width: 0px;
      }
    </style>
  </defs>
  <g id="Capa_1-2" data-name="Capa 1">
    <g>
      <g>
        <polygon class="cls-1" points="10.36 76.18 10.36 69.39 1.08 69.39 1.08 76.18 0 76.18 0 61.68 1.08 61.68 1.08 68.39 10.36 68.39 10.36 61.68 11.43 61.68 11.43 76.18 10.36 76.18"/>
        <rect class="cls-1" x="20.45" y="61.68" width="1.08" height="14.5"/>
        <path class="cls-1" d="M35.78,76.18h-4.83v-14.5h4.83c4.56,0,7.7,3.13,7.7,7.21v.04c0,4.08-3.15,7.25-7.7,7.25M42.37,68.93c0-3.44-2.55-6.26-6.59-6.26h-3.75v12.51h3.75c4.04,0,6.59-2.75,6.59-6.22v-.04Z"/>
        <path class="cls-1" d="M56.95,76.18h-4.83v-14.5h4.83c4.55,0,7.7,3.13,7.7,7.21v.04c0,4.08-3.15,7.25-7.7,7.25M63.54,68.93c0-3.44-2.55-6.26-6.59-6.26h-3.75v12.51h3.75c4.04,0,6.59-2.75,6.59-6.22v-.04Z"/>
        <polygon class="cls-1" points="73.3 76.18 73.3 61.68 83.62 61.68 83.62 62.67 74.38 62.67 74.38 68.37 82.68 68.37 82.68 69.37 74.38 69.37 74.38 75.19 83.72 75.19 83.72 76.18 73.3 76.18"/>
        <polygon class="cls-1" points="104.64 76.18 94.43 63.3 94.43 76.18 93.39 76.18 93.39 61.68 94.41 61.68 104.42 74.3 104.42 61.68 105.45 61.68 105.45 76.18 104.64 76.18"/>
        <path class="cls-1" d="M134.7,76.18h-6.3v-14.5h5.99c2.82,0,4.71,1.39,4.71,3.56v.04c0,1.97-1.29,2.96-2.47,3.44,1.74.46,3.28,1.45,3.28,3.46v.04c0,2.43-2.07,3.96-5.2,3.96M138,65.35c0-1.59-1.31-2.67-3.62-2.67h-4.89v5.7h4.79c2.18,0,3.73-1.06,3.73-2.99v-.04ZM138.81,72.18c0-1.78-1.55-2.82-4.41-2.82h-4.91v5.82h5.26c2.49,0,4.06-1.14,4.06-2.96v-.04Z"/>
        <polygon class="cls-1" points="148.75 76.18 148.75 61.68 159.07 61.68 159.07 62.67 149.83 62.67 149.83 68.37 158.14 68.37 158.14 69.37 149.83 69.37 149.83 75.19 159.17 75.19 159.17 76.18 148.75 76.18"/>
        <path class="cls-1" d="M180.97,76.18l-1.84-4.06h-8.56l-1.84,4.06h-1.12l6.75-14.61h1.03l6.76,14.61h-1.18ZM174.86,62.76l-3.83,8.39h7.65l-3.81-8.39Z"/>
        <path class="cls-1" d="M196.34,76.43c-4.14,0-7.21-3.29-7.21-7.46v-.04c0-4.1,3.07-7.5,7.25-7.5,2.59,0,4.14.95,5.64,2.32l-.77.78c-1.26-1.22-2.71-2.13-4.89-2.13-3.48,0-6.11,2.84-6.11,6.49v.04c0,3.66,2.68,6.53,6.13,6.53,2.09,0,3.52-.81,4.99-2.26l.73.71c-1.53,1.51-3.19,2.53-5.76,2.53"/>
        <polygon class="cls-1" points="221.63 76.18 221.63 69.39 212.35 69.39 212.35 76.18 211.28 76.18 211.28 61.68 212.35 61.68 212.35 68.39 221.63 68.39 221.63 61.68 222.71 61.68 222.71 76.18 221.63 76.18"/>
      </g>
      <g>
        <path class="cls-1" d="M135.88,0h-43.31v43.8h43.8V0h-.49ZM135.88,43.31h-42.83V.49h42.83v42.83Z"/>
        <path class="cls-1" d="M134.57,1.8h-40.2v40.2h40.2V1.8ZM103.33,30.65h-.67v-7.22h.67v7.22ZM112.77,21.59h-10.11v-7.78h-1.31v-.67h1.98v7.78h9.44v.67ZM113.44,13.14h7.45c3.46,0,5.71,1.7,5.71,4.38,0,1.59-.67,2.64-1.54,3.34.52-.66.87-1.52.87-2.67,0-2.68-2.25-4.38-5.71-4.38h-6.79v-.67ZM120.57,20.95c1.16,0,2.15-.26,2.86-.76-.66.95-1.93,1.43-3.52,1.43h-5.15v-6.03h.67v5.36h5.15ZM120.6,29.55h-5.85v-6.18h.67v5.51h5.86c1.32,0,2.39-.29,3.13-.83-.68.96-2.01,1.5-3.8,1.5ZM125.99,29.27c.59-.74.92-1.66.92-2.75,0-2.43-1.68-3.63-3.75-4.25.34-.15.68-.33,1-.56,1.92.65,3.42,1.85,3.42,4.15,0,1.44-.57,2.6-1.59,3.41Z"/>
      </g>
      <g>
        <path class="cls-1" d="M50.75,92.48c-.05-.08-.12-.22-.2-.4l-2.5-6.07h-1.03c.11.1.16.21.16.32s-.04.27-.13.49l-2.29,5.57c-.08.18-.22.35-.43.5h1.29c-.12-.11-.19-.22-.19-.34,0-.09.02-.2.08-.32l.82-2.05h2.6l.78,1.95c.07.17.11.31.11.4,0,.12-.06.24-.19.36h1.52c-.19-.15-.32-.29-.39-.4ZM46.55,89.6l1.07-2.68,1.07,2.68h-2.15Z"/>
        <path class="cls-1" d="M58.51,86.8v3.75c.01.59-.16,1.05-.52,1.4-.36.35-.84.52-1.46.52-.79,0-1.35-.27-1.7-.82-.21-.32-.31-.83-.31-1.54v-3.32c0-.37.12-.64.36-.8h-1.51c.24.16.36.42.36.8v3.31c0,.56.04.98.13,1.28.09.3.24.56.47.8.52.54,1.23.82,2.13.82.59,0,1.1-.13,1.52-.39.43-.26.73-.61.91-1.07.12-.31.19-.77.19-1.37v-3.38c0-.38.12-.64.36-.8h-1.31c.25.15.37.42.37.8Z"/>
        <path class="cls-1" d="M72.71,86.8v4.27l-4.05-5.07h-1.05c.24.16.36.45.36.85v5.25c0,.38-.12.64-.36.79h1.3c-.24-.15-.36-.41-.36-.79v-5.02l4.74,5.93v-6.21c0-.37.12-.64.36-.8h-1.3c.24.16.36.42.36.8Z"/>
        <path class="cls-1" d="M82.59,92.48c-.05-.08-.12-.22-.2-.4l-2.5-6.07h-1.03c.11.1.16.21.16.32s-.04.27-.13.49l-2.29,5.57c-.08.18-.22.35-.43.5h1.29c-.12-.11-.19-.22-.19-.34,0-.09.02-.2.08-.32l.82-2.05h2.6l.78,1.95c.07.17.11.31.11.4,0,.12-.06.24-.19.36h1.52c-.19-.15-.32-.29-.39-.4ZM78.39,89.6l1.07-2.68,1.07,2.68h-2.15Z"/>
        <path class="cls-1" d="M84.43,86l-.14.98c.14-.18.28-.29.41-.35.11-.04.29-.07.53-.07h1.29v5.52c0,.38-.12.64-.36.79h1.52c-.24-.14-.36-.4-.36-.79v-5.52h1.29c.24,0,.42.02.53.07.13.05.27.17.42.35l-.15-.98h-4.98Z"/>
        <path class="cls-1" d="M97.63,86.8v3.75c.01.59-.16,1.05-.52,1.4-.36.35-.84.52-1.46.52-.79,0-1.35-.27-1.7-.82-.21-.32-.31-.83-.31-1.54v-3.32c0-.37.12-.64.36-.8h-1.51c.24.16.36.42.36.8v3.31c0,.56.04.98.13,1.28.09.3.24.56.47.8.52.54,1.23.82,2.13.82.59,0,1.1-.13,1.52-.39.43-.26.73-.61.91-1.07.12-.31.19-.77.19-1.37v-3.38c0-.38.12-.64.36-.8h-1.31c.25.15.37.42.37.8Z"/>
        <path class="cls-1" d="M107.03,92.18c-.07-.09-.11-.15-.12-.17l-1.24-1.75c-.17-.25-.29-.41-.37-.49-.09-.1-.18-.19-.25-.25-.08-.06-.2-.14-.36-.25,1.12-.2,1.68-.75,1.68-1.64,0-.35-.1-.66-.29-.93s-.44-.45-.76-.54c-.35-.1-.97-.16-1.87-.16h-1.55c.24.16.36.42.36.8v5.3c0,.38-.12.64-.36.79h1.51c-.24-.15-.36-.41-.36-.79v-2.74c.43,0,.75.08.98.21.23.13.47.39.73.77l1.75,2.55h1.43c-.24-.1-.41-.2-.53-.29-.12-.09-.25-.22-.38-.41ZM103.74,88.86c-.12,0-.35-.01-.68-.03v-2.26c.05,0,.15,0,.29,0,.14,0,.24,0,.29,0,.7,0,1.19.1,1.46.29.24.17.36.44.36.81,0,.29-.08.54-.25.75-.17.21-.4.34-.68.4-.21.04-.47.06-.78.06Z"/>
        <path class="cls-1" d="M114.73,92.23c-.2.05-.49.08-.88.08h-2.01v-2.97h1.78c.31,0,.51.01.6.04.07.02.17.09.31.2l-.07-.87c-.09.04-.27.06-.53.06h-2.1v-2.21h2.1c.34,0,.66.09.97.28l.06.03-.14-.88h-4.12c.24.16.36.42.36.8v5.3c0,.38-.12.64-.36.79h4.38l.31-.99-.07.05c-.23.15-.43.25-.6.3Z"/>
        <path class="cls-1" d="M122.6,92.23c-.2.05-.49.08-.88.08h-2.15v-5.51c0-.37.12-.64.36-.8h-1.51c.24.16.36.42.36.8v5.3c0,.38-.12.64-.36.79h4.52l.31-.99-.06.05c-.23.15-.43.25-.59.3Z"/>
        <path class="cls-1" d="M136.14,92.18c-.07-.09-.11-.15-.12-.17l-1.24-1.75c-.17-.25-.29-.41-.37-.49-.09-.1-.18-.19-.25-.25-.08-.06-.2-.14-.36-.25,1.12-.2,1.68-.75,1.68-1.64,0-.35-.1-.66-.29-.93s-.44-.45-.76-.54c-.35-.1-.97-.16-1.87-.16h-1.55c.24.16.36.42.36.8v5.3c0,.38-.12.64-.36.79h1.51c-.24-.15-.36-.41-.36-.79v-2.74c.43,0,.75.08.98.21.23.13.47.39.73.77l1.75,2.55h1.43c-.24-.1-.41-.2-.53-.29-.12-.09-.25-.22-.38-.41ZM132.85,88.86c-.12,0-.35-.01-.68-.03v-2.26c.05,0,.15,0,.29,0,.14,0,.24,0,.29,0,.7,0,1.19.1,1.46.29.24.17.36.44.36.81,0,.29-.08.54-.25.75-.17.21-.4.34-.68.4-.21.04-.47.06-.78.06Z"/>
        <path class="cls-1" d="M143.84,92.23c-.2.05-.49.08-.88.08h-2.01v-2.97h1.78c.31,0,.51.01.6.04.07.02.17.09.31.2l-.07-.87c-.09.04-.27.06-.53.06h-2.1v-2.21h2.1c.34,0,.66.09.97.28l.06.03-.14-.88h-4.12c.24.16.36.42.36.8v5.3c0,.38-.12.64-.36.79h4.38l.31-.99-.07.05c-.23.15-.43.25-.6.3Z"/>
        <path class="cls-1" d="M150.02,88.88c-.7-.25-1.16-.48-1.37-.7-.17-.17-.26-.38-.26-.63,0-.34.13-.6.41-.8s.63-.3,1.09-.3c.56,0,1.11.16,1.64.49l-.11-.92c-.51-.1-.96-.15-1.36-.15-.79,0-1.4.17-1.83.49-.43.33-.65.79-.65,1.38,0,.51.24.92.71,1.22.29.18.71.37,1.25.56.7.26,1.16.47,1.36.63.25.2.37.48.37.83,0,.44-.16.79-.49,1.05-.33.26-.76.39-1.31.39-.85,0-1.53-.26-2.05-.77l.14,1.1.11.04c.5.14,1.04.21,1.61.21.88,0,1.57-.19,2.07-.57.5-.38.75-.9.75-1.56,0-.53-.19-.96-.57-1.28-.25-.22-.75-.46-1.5-.73Z"/>
        <path class="cls-1" d="M158.73,85.89c-1.02,0-1.86.34-2.53,1.02s-1,1.54-1,2.59v.18c0,.95.34,1.75,1.02,2.38.68.63,1.52.95,2.51.95s1.86-.34,2.55-1.03c.68-.69,1.03-1.54,1.03-2.55s-.34-1.85-1.02-2.53c-.68-.67-1.53-1.01-2.56-1.01ZM160.7,91.61c-.5.57-1.15.85-1.94.85s-1.44-.26-1.95-.78c-.51-.52-.76-1.21-.76-2.05v-.17c0-.89.24-1.62.73-2.17.49-.55,1.13-.83,1.92-.83s1.47.28,1.98.83c.51.55.77,1.26.77,2.14s-.25,1.62-.75,2.19Z"/>
        <path class="cls-1" d="M170.8,92.18c-.07-.09-.11-.15-.12-.17l-1.24-1.75c-.17-.25-.29-.41-.37-.49-.09-.1-.18-.19-.25-.25-.08-.06-.2-.14-.36-.25,1.12-.2,1.68-.75,1.68-1.64,0-.35-.1-.66-.29-.93s-.44-.45-.76-.54c-.35-.1-.97-.16-1.87-.16h-1.55c.24.16.36.42.36.8v5.3c0,.38-.12.64-.36.79h1.51c-.24-.15-.36-.41-.36-.79v-2.74c.43,0,.75.08.98.21.23.13.47.39.73.77l1.75,2.55h1.43c-.24-.1-.41-.2-.53-.29-.12-.09-.25-.22-.38-.41ZM167.51,88.86c-.12,0-.35-.01-.68-.03v-2.26c.05,0,.15,0,.29,0,.14,0,.24,0,.29,0,.7,0,1.19.1,1.46.29.24.17.36.44.36.81,0,.29-.08.54-.25.75-.17.21-.4.34-.68.4-.21.04-.47.06-.78.06Z"/>
        <path class="cls-1" d="M173.26,86l-.14.98c.14-.18.28-.29.41-.35.11-.04.29-.07.53-.07h1.29v5.52c0,.38-.12.64-.36.79h1.52c-.24-.14-.36-.4-.36-.79v-5.52h1.29c.24,0,.42.02.53.07.13.05.27.17.42.35l-.15-.98h-4.98Z"/>
      </g>
    </g>
  </g>
</svg>