<?xml version="1.0" encoding="UTF-8"?>
<svg id="Capa_2" data-name="Capa 2" xmlns="http://www.w3.org/2000/svg" viewBox="0 0 190.06 78.55">
  <defs>
    <style>
      .cls-1 {
        fill: #e17843;
      }

      .cls-1, .cls-2 {
        stroke-width: 0px;
      }

      .cls-2 {
        fill: #666160;
      }
    </style>
  </defs>
  <g id="Capa_1-2" data-name="Capa 1">
    <g>
      <path class="cls-2" d="M98.36,78.43c-.35.21-.83.15-1.08-.28l-1.4-2.48h-.15v2.06c0,.45-.36.82-.8.82s-.78-.37-.78-.82v-5.94c0-.45.36-.82.78-.82h1.54c1.26,0,2.26,1.05,2.26,2.35,0,.9-.47,1.68-1.19,2.07l1.1,1.93c.22.4.09.88-.29,1.12M96.47,72.61h-.74v1.42h.74c.39,0,.69-.31.69-.72s-.31-.71-.69-.71"/>
      <path class="cls-2" d="M103.1,78.55c-.44,0-.78-.37-.78-.81v-5.96c0-.44.35-.81.78-.81s.78.37.78.81v5.96c0,.44-.35.81-.78.81"/>
      <path class="cls-2" d="M113.58,72.1l-2.27,5.93c-.13.32-.42.52-.74.52s-.61-.2-.73-.52l-2.27-5.93c-.17-.42.03-.89.44-1.06.41-.16.86.04,1.02.46l1.54,4.03,1.54-4.03c.17-.42.62-.62,1.03-.46.41.17.6.64.44,1.06"/>
      <path class="cls-2" d="M118.03,78.55c-.44,0-.78-.37-.78-.81v-5.96c0-.44.35-.81.78-.81s.78.37.78.81v5.96c0,.44-.35.81-.78.81"/>
      <path class="cls-2" d="M126.66,77.74c0,.44-.36.81-.78.81h-2.46c-.44,0-.79-.37-.79-.81v-5.96c0-.44.36-.81.79-.81h2.46c.43,0,.78.37.78.81s-.36.83-.78.83h-1.67v1.43h1.58c.39,0,.69.33.69.72s-.31.72-.69.72h-1.58v1.43h1.67c.43,0,.78.37.78.83"/>
      <path class="cls-2" d="M134.64,78.43c-.35.21-.83.15-1.08-.28l-1.4-2.48h-.15v2.06c0,.45-.36.82-.8.82s-.78-.37-.78-.82v-5.94c0-.45.36-.82.78-.82h1.54c1.26,0,2.26,1.05,2.26,2.35,0,.9-.47,1.68-1.19,2.07l1.1,1.93c.22.4.09.88-.29,1.12M132.75,72.61h-.74v1.42h.74c.39,0,.69-.31.69-.72s-.31-.71-.69-.71"/>
      <path class="cls-2" d="M144.72,78.48c-.33.17-.83.06-1.04-.42l-.35-.81h-3.02l-.36.81c-.21.47-.69.57-1.04.42-.4-.17-.57-.67-.4-1.08l2.56-5.93c.08-.19.24-.35.42-.43.2-.08.45-.08.64,0,.19.08.33.24.42.43l2.56,5.93c.18.41,0,.87-.4,1.08M142.63,75.62l-.8-1.86-.8,1.86h1.6Z"/>
      <path class="cls-2" d="M161.94,71.79v5.94c0,.45-.36.82-.79.82s-.8-.37-.8-.82v-2.9l-1.43,3.04c-.13.27-.38.41-.62.41s-.5-.15-.62-.41l-1.44-3.04v2.9c0,.45-.36.82-.8.82s-.78-.37-.78-.82v-5.94c0-.45.36-.82.78-.82s.65.3.82.63c.06.12,1.28,2.71,2.05,4.34.76-1.63,1.99-4.21,2.05-4.34.16-.34.4-.63.81-.63s.79.37.79.82"/>
      <path class="cls-2" d="M171.87,78.48c-.33.17-.83.06-1.04-.42l-.35-.81h-3.02l-.36.81c-.21.47-.69.57-1.04.42-.4-.17-.57-.67-.4-1.08l2.56-5.93c.08-.19.24-.35.42-.43.2-.08.45-.08.64,0,.19.08.33.24.42.43l2.56,5.93c.18.41,0,.87-.4,1.08M169.78,75.62l-.8-1.86-.8,1.86h1.6Z"/>
      <path class="cls-2" d="M180.02,72.26l-1.69,2.51v2.97c0,.44-.36.81-.79.81s-.78-.37-.78-.81v-2.97l-1.69-2.51c-.26-.37-.17-.87.19-1.14.36-.26.84-.17,1.09.19l1.2,1.77,1.2-1.77c.25-.37.73-.45,1.1-.19.36.27.44.77.19,1.14"/>
      <path class="cls-2" d="M188.9,78.48c-.33.17-.83.06-1.04-.42l-.35-.81h-3.02l-.36.81c-.21.47-.69.57-1.04.42-.4-.17-.57-.67-.4-1.08l2.56-5.93c.08-.19.24-.35.42-.43.2-.08.45-.08.64,0,.19.08.33.24.42.43l2.56,5.93c.18.41,0,.87-.4,1.08M186.81,75.62l-.8-1.86-.8,1.86h1.6Z"/>
      <path class="cls-1" d="M11.32,9.02c-2.53,0-4.85,1.05-6.5,2.73-1.66,1.67-2.7,4.02-2.7,6.57v8.49h6.98v-8.35c0-1.02.25-1.89.65-2.56.42-.67.95-1.06,1.57-1.06s1.15.39,1.57,1.06c.41.67.65,1.54.65,2.56v8.35h6.99v-8.49c0-2.56-1.04-4.9-2.7-6.57-1.65-1.68-3.98-2.73-6.51-2.73"/>
      <path class="cls-1" d="M178.58,9.02c-2.53,0-4.85,1.05-6.51,2.73-1.65,1.67-2.69,4.02-2.69,6.57v8.49h6.98v-8.35c0-1.02.25-1.89.65-2.56.42-.67.95-1.06,1.57-1.06s1.15.39,1.57,1.06c.41.67.65,1.54.65,2.56v8.35h6.98v-8.49c0-2.56-1.03-4.9-2.69-6.57-1.66-1.68-3.98-2.73-6.51-2.73"/>
      <path class="cls-1" d="M28.04,6.74c.71-.71,1.13-1.69,1.13-2.78s-.43-2.06-1.13-2.78C27.34.47,26.37.03,25.3.03s-2.04.44-2.75,1.15c-.7.72-1.14,1.7-1.14,2.78s.44,2.07,1.14,2.78l.86.86c1.43,1.45,1.53,1.83.17,3.21l-.78.79c-.64.64-1.04,1.54-1.04,2.52v12.7h7.06v-12.7c0-.98-.4-1.88-1.04-2.52l-.78-.79c-1.36-1.38-1.26-1.76.17-3.21l.86-.86Z"/>
      <path class="cls-1" d="M40.57,21.29c-.42.77-.95,1.23-1.57,1.23s-1.16-.45-1.57-1.23c-.4-.78-.65-1.78-.65-2.96s.25-2.18.65-2.95c.41-.77.95-1.23,1.57-1.23s1.15.46,1.57,1.23c.3.58.51,1.28.59,2.08h7c-.21-2.22-1.19-4.22-2.66-5.7-1.65-1.68-3.98-2.72-6.5-2.72s-4.86,1.05-6.51,2.72c-1.66,1.68-2.7,4.02-2.69,6.58,0,2.56,1.03,4.91,2.69,6.58,1.27,1.28,3.49,2.73,6.51,2.73,2.26,0,4.36-.85,5.96-2.23,1.17-1,2.9-3.01,3.2-6.21h-7c-.08.81-.3,1.51-.59,2.08"/>
      <path class="cls-1" d="M74.96,9.02c-2.53,0-4.86,1.04-6.51,2.72-1.66,1.67-2.69,4.02-2.69,6.58s1.03,4.9,2.69,6.57c1.62,1.63,3.9,2.73,6.55,2.73s4.99-1.23,6.52-2.78c1.92-2.23,2.02-4.61,2.02-4.61h-6.24s-.86,2.19-2.35,2.19c-.62,0-1.16-.45-1.56-1.22-.29-.53-.48-1.18-.58-1.9h10.84s.75-4.47-2.22-7.5c-1.73-1.76-3.92-2.78-6.48-2.77M72.93,16.66c.13-.54.3-1.02.47-1.38.3-.67.94-1.22,1.56-1.22.63,0,1.14.45,1.58,1.25.18.34.36.94.44,1.34h-4.05Z"/>
      <path class="cls-1" d="M140.36,9.02c-2.52,0-4.85,1.04-6.51,2.72-1.65,1.67-2.7,4.02-2.69,6.58,0,2.55,1.04,4.9,2.69,6.57,1.61,1.63,3.89,2.73,6.55,2.73s5-1.23,6.52-2.78c1.93-2.23,2.02-4.61,2.02-4.61h-6.23s-.86,2.19-2.35,2.19c-.62,0-1.15-.45-1.56-1.22-.28-.53-.47-1.18-.58-1.9h10.84s.74-4.47-2.22-7.5c-1.72-1.76-3.92-2.78-6.48-2.77M138.34,16.66c.13-.54.3-1.02.46-1.38.32-.67.95-1.22,1.56-1.22.63,0,1.14.45,1.58,1.25.19.34.36.94.45,1.34h-4.05Z"/>
      <path class="cls-1" d="M88.15,0c-1.93,0-3.49,1.59-3.49,3.53v23.28s7,0,7,0V3.53C91.65,1.58,90.08,0,88.15,0"/>
      <path class="cls-1" d="M101.82,9.02c-5.08,0-9.2,4.16-9.2,9.3s4.12,9.3,9.2,9.3,9.2-4.16,9.2-9.3-4.11-9.3-9.2-9.3M101.82,22.51c-1.22,0-2.21-1.87-2.21-4.19s.99-4.19,2.21-4.19,2.22,1.88,2.22,4.19-.99,4.19-2.22,4.19"/>
      <path class="cls-1" d="M159.3,9.02c-5.09,0-9.2,4.16-9.2,9.3s4.11,9.3,9.2,9.3,9.21-4.16,9.21-9.3-4.12-9.3-9.21-9.3M159.3,22.51c-1.23,0-2.21-1.87-2.21-4.19s.99-4.19,2.21-4.19,2.22,1.88,2.22,4.19-.99,4.19-2.22,4.19"/>
      <path class="cls-1" d="M130.28,18.32h.01s-.01-14.79-.01-14.79c0-1.95-1.56-3.53-3.49-3.53s-3.49,1.59-3.49,3.53v5.77c-.71-.18-1.46-.28-2.23-.28-2.53,0-4.85,1.04-6.51,2.72-1.65,1.67-2.69,4.02-2.69,6.58s1.04,4.91,2.69,6.57h0c1.07,1.08,3.34,2.73,6.51,2.73s5.45-1.66,6.51-2.73c1.66-1.67,2.7-4.02,2.7-6.58h0ZM121.07,22.51c-1.21,0-2.21-1.87-2.21-4.19s1-4.19,2.21-4.19,2.22,1.88,2.22,4.19-1,4.19-2.22,4.19"/>
      <path class="cls-1" d="M66.77,25.58c0-.23-.07-.45-.18-.64l-3.83-5.85,2.65-4.86c.97-1.67.42-3.84-1.24-4.83-1.66-.99-3.8-.43-4.78,1.24l-3.17,5.71v-3.8c0-1.95-1.56-3.53-3.49-3.53s-3.49,1.58-3.49,3.53v14.26h6.98v-5.58l3.69,5.58h5.65c.67,0,1.21-.55,1.21-1.23"/>
      <path class="cls-2" d="M9.67,35.8v10.39c0,.45-.34.81-.77.81s-.78-.36-.78-.81v-4.54H3.53v4.54c0,.45-.34.81-.78.81s-.77-.36-.77-.81v-10.39c0-.45.34-.81.77-.81s.78.36.78.81v4.56h4.59v-4.56c0-.45.34-.81.78-.81s.77.36.77.81"/>
      <path class="cls-2" d="M26.67,40.98c0,3.38-2.65,6.12-5.89,6.12s-5.91-2.74-5.91-6.12,2.65-6.1,5.91-6.1,5.89,2.74,5.89,6.1M16.44,40.98c0,2.5,1.93,4.5,4.34,4.5s4.32-2.03,4.32-4.5-1.96-4.48-4.32-4.48-4.34,2.03-4.34,4.48"/>
      <path class="cls-2" d="M38.57,35.8c0,.45-.34.81-.78.81h-1.94v9.58c0,.45-.34.81-.78.81s-.78-.36-.78-.81v-9.58h-1.94c-.44,0-.78-.36-.78-.81s.34-.81.78-.81h5.45c.44,0,.78.36.78.81"/>
      <path class="cls-2" d="M49.48,46.19c0,.45-.36.81-.78.81h-4.29c-.44,0-.78-.36-.78-.81v-10.39c0-.45.31-.81.78-.81h4.29c.42,0,.78.36.78.81s-.36.81-.78.81h-3.51v3.73h3.37c.34,0,.63.29.63.65s-.28.65-.63.65h-3.37v3.73h3.51c.42,0,.78.36.78.81"/>
      <path class="cls-2" d="M59.94,47h-4.34c-.44,0-.78-.36-.78-.81v-10.39c0-.45.34-.81.78-.81s.78.36.78.81v9.58h3.56c.44,0,.78.37.78.81s-.34.81-.78.81"/>
      <path class="cls-2" d="M68.4,47.1c-.81,0-1.82-.29-2.44-.75-.36-.24-.45-.75-.22-1.12.23-.37.74-.47,1.08-.23.41.28,1.19.5,1.69.47,1.97-.13,2.55-2.82.85-3.68-.75-.37-1.83-.45-2.65-1.33-2.73-2.89.81-6.93,4.34-5.08.36.2.49.73.27,1.1-.22.39-.7.54-1.08.29-1.11-.71-2.99-.03-2.99,1.41,0,1.56,1.75,1.59,2.84,2.17,2.04,1.1,2.43,3.75,1.02,5.44-.92,1.12-2.07,1.3-2.69,1.3"/>
      <path class="cls-2" d="M93.53,42.33l-1.11,2.39.85,1.04c.25.31.22.76-.08,1.02-.34.31-.75.2-.99-.08l-.58-.7c-.66.71-1.6,1.15-2.6,1.15-2.01,0-3.62-1.69-3.62-3.75,0-1.27.6-2.42,1.6-3.12-.6-.57-.97-1.38-.97-2.29,0-1.7,1.33-3.1,2.99-3.1s2.99,1.4,2.99,3.1c0,1.57-1.11,2.86-2.57,3.08l1.99,2.42.83-1.8c.17-.36.58-.5.94-.32.34.16.49.6.33.96M90.71,44.88l-2.82-3.46c-.67.41-1.1,1.15-1.1,1.98,0,1.27,1,2.29,2.22,2.29.66,0,1.28-.31,1.69-.81M87.42,38c0,.91.72,1.66,1.6,1.66s1.6-.75,1.6-1.66-.72-1.66-1.6-1.66-1.6.75-1.6,1.66"/>
      <path class="cls-2" d="M113.66,46.87c-.34.21-.81.18-1.08-.24l-2.85-4.66h-.97v4.22c0,.45-.34.81-.77.81s-.78-.36-.78-.81v-10.39c0-.44.34-.81.77-.81h2.69c1.85,0,3.37,1.57,3.37,3.49,0,1.62-1.07,2.99-2.52,3.38l2.38,3.9c.23.37.14.89-.24,1.12M108.76,40.35h1.91c.99,0,1.8-.83,1.8-1.87s-.81-1.87-1.8-1.87h-1.91v3.73Z"/>
      <path class="cls-2" d="M124.94,46.19c0,.45-.36.81-.78.81h-4.29c-.44,0-.78-.36-.78-.81v-10.39c0-.45.31-.81.78-.81h4.29c.42,0,.78.36.78.81s-.36.81-.78.81h-3.51v3.73h3.37c.34,0,.63.29.63.65s-.28.65-.63.65h-3.37v3.73h3.51c.42,0,.78.36.78.81"/>
      <path class="cls-2" d="M132.86,47.1c-.81,0-1.82-.29-2.44-.75-.36-.24-.45-.75-.22-1.12.24-.37.74-.47,1.08-.23.41.28,1.19.5,1.69.47,1.97-.13,2.55-2.82.85-3.68-.75-.37-1.83-.45-2.65-1.33-2.73-2.89.81-6.93,4.34-5.08.36.2.49.73.27,1.1-.22.39-.71.54-1.08.29-1.11-.71-2.99-.03-2.99,1.41,0,1.56,1.75,1.59,2.84,2.17,2.04,1.1,2.43,3.75,1.02,5.44-.92,1.12-2.07,1.3-2.69,1.3"/>
      <path class="cls-2" d="M153.24,40.98c0,3.38-2.65,6.12-5.89,6.12s-5.9-2.74-5.9-6.12,2.65-6.1,5.9-6.1,5.89,2.74,5.89,6.1M143.01,40.98c0,2.5,1.93,4.5,4.34,4.5s4.32-2.03,4.32-4.5-1.96-4.48-4.32-4.48-4.34,2.03-4.34,4.48"/>
      <path class="cls-2" d="M164.97,46.87c-.34.21-.81.18-1.08-.24l-2.85-4.66h-.97v4.22c0,.45-.34.81-.77.81s-.78-.36-.78-.81v-10.39c0-.44.34-.81.77-.81h2.69c1.85,0,3.37,1.57,3.37,3.49,0,1.62-1.06,2.99-2.52,3.38l2.38,3.9c.24.37.14.89-.23,1.12M160.07,40.35h1.91c.99,0,1.8-.83,1.8-1.87s-.81-1.87-1.8-1.87h-1.91v3.73Z"/>
      <path class="cls-2" d="M177.02,35.8c0,.45-.34.81-.78.81h-1.94v9.58c0,.45-.34.81-.78.81s-.78-.36-.78-.81v-9.58h-1.94c-.44,0-.78-.36-.78-.81s.34-.81.78-.81h5.45c.44,0,.78.36.78.81"/>
      <path class="cls-2" d="M184.62,47.1c-.81,0-1.82-.29-2.44-.75-.36-.24-.45-.75-.22-1.12.24-.37.74-.47,1.08-.23.41.28,1.19.5,1.69.47,1.97-.13,2.55-2.82.85-3.68-.75-.37-1.83-.45-2.65-1.33-2.73-2.89.81-6.93,4.34-5.08.36.2.49.73.27,1.1-.22.39-.7.54-1.08.29-1.11-.71-2.99-.03-2.99,1.41,0,1.56,1.76,1.59,2.84,2.17,2.04,1.1,2.43,3.75,1.02,5.44-.92,1.12-2.07,1.3-2.69,1.3"/>
      <path class="cls-2" d="M9.67,35.8v10.39c0,.45-.34.81-.77.81s-.78-.36-.78-.81v-4.54H3.53v4.54c0,.45-.34.81-.78.81s-.77-.36-.77-.81v-10.39c0-.45.34-.81.77-.81s.78.36.78.81v4.56h4.59v-4.56c0-.45.34-.81.78-.81s.77.36.77.81"/>
      <path class="cls-2" d="M26.67,40.98c0,3.38-2.65,6.12-5.89,6.12s-5.91-2.74-5.91-6.12,2.65-6.1,5.91-6.1,5.89,2.74,5.89,6.1M16.44,40.98c0,2.5,1.93,4.5,4.34,4.5s4.32-2.03,4.32-4.5-1.96-4.48-4.32-4.48-4.34,2.03-4.34,4.48"/>
      <path class="cls-2" d="M38.57,35.8c0,.45-.34.81-.78.81h-1.94v9.58c0,.45-.34.81-.78.81s-.78-.36-.78-.81v-9.58h-1.94c-.44,0-.78-.36-.78-.81s.34-.81.78-.81h5.45c.44,0,.78.36.78.81"/>
      <path class="cls-2" d="M49.48,46.19c0,.45-.36.81-.78.81h-4.29c-.44,0-.78-.36-.78-.81v-10.39c0-.45.31-.81.78-.81h4.29c.42,0,.78.36.78.81s-.36.81-.78.81h-3.51v3.73h3.37c.34,0,.63.29.63.65s-.28.65-.63.65h-3.37v3.73h3.51c.42,0,.78.36.78.81"/>
      <path class="cls-2" d="M59.94,47h-4.34c-.44,0-.78-.36-.78-.81v-10.39c0-.45.34-.81.78-.81s.78.36.78.81v9.58h3.56c.44,0,.78.37.78.81s-.34.81-.78.81"/>
      <path class="cls-2" d="M68.4,47.1c-.81,0-1.82-.29-2.44-.75-.36-.24-.45-.75-.22-1.12.23-.37.74-.47,1.08-.23.41.28,1.19.5,1.69.47,1.97-.13,2.55-2.82.85-3.68-.75-.37-1.83-.45-2.65-1.33-2.73-2.89.81-6.93,4.34-5.08.36.2.49.73.27,1.1-.22.39-.7.54-1.08.29-1.11-.71-2.99-.03-2.99,1.41,0,1.56,1.75,1.59,2.84,2.17,2.04,1.1,2.43,3.75,1.02,5.44-.92,1.12-2.07,1.3-2.69,1.3"/>
      <path class="cls-2" d="M93.53,42.33l-1.11,2.39.85,1.04c.25.31.22.76-.08,1.02-.34.31-.75.2-.99-.08l-.58-.7c-.66.71-1.6,1.15-2.6,1.15-2.01,0-3.62-1.69-3.62-3.75,0-1.27.6-2.42,1.6-3.12-.6-.57-.97-1.38-.97-2.29,0-1.7,1.33-3.1,2.99-3.1s2.99,1.4,2.99,3.1c0,1.57-1.11,2.86-2.57,3.08l1.99,2.42.83-1.8c.17-.36.58-.5.94-.32.34.16.49.6.33.96M90.71,44.88l-2.82-3.46c-.67.41-1.1,1.15-1.1,1.98,0,1.27,1,2.29,2.22,2.29.66,0,1.28-.31,1.69-.81M87.42,38c0,.91.72,1.66,1.6,1.66s1.6-.75,1.6-1.66-.72-1.66-1.6-1.66-1.6.75-1.6,1.66"/>
      <path class="cls-2" d="M113.66,46.87c-.34.21-.81.18-1.08-.24l-2.85-4.66h-.97v4.22c0,.45-.34.81-.77.81s-.78-.36-.78-.81v-10.39c0-.44.34-.81.77-.81h2.69c1.85,0,3.37,1.57,3.37,3.49,0,1.62-1.07,2.99-2.52,3.38l2.38,3.9c.23.37.14.89-.24,1.12M108.76,40.35h1.91c.99,0,1.8-.83,1.8-1.87s-.81-1.87-1.8-1.87h-1.91v3.73Z"/>
      <path class="cls-2" d="M124.94,46.19c0,.45-.36.81-.78.81h-4.29c-.44,0-.78-.36-.78-.81v-10.39c0-.45.31-.81.78-.81h4.29c.42,0,.78.36.78.81s-.36.81-.78.81h-3.51v3.73h3.37c.34,0,.63.29.63.65s-.28.65-.63.65h-3.37v3.73h3.51c.42,0,.78.36.78.81"/>
      <path class="cls-2" d="M132.86,47.1c-.81,0-1.82-.29-2.44-.75-.36-.24-.45-.75-.22-1.12.24-.37.74-.47,1.08-.23.41.28,1.19.5,1.69.47,1.97-.13,2.55-2.82.85-3.68-.75-.37-1.83-.45-2.65-1.33-2.73-2.89.81-6.93,4.34-5.08.36.2.49.73.27,1.1-.22.39-.71.54-1.08.29-1.11-.71-2.99-.03-2.99,1.41,0,1.56,1.75,1.59,2.84,2.17,2.04,1.1,2.43,3.75,1.02,5.44-.92,1.12-2.07,1.3-2.69,1.3"/>
      <path class="cls-2" d="M153.24,40.98c0,3.38-2.65,6.12-5.89,6.12s-5.9-2.74-5.9-6.12,2.65-6.1,5.9-6.1,5.89,2.74,5.89,6.1M143.01,40.98c0,2.5,1.93,4.5,4.34,4.5s4.32-2.03,4.32-4.5-1.96-4.48-4.32-4.48-4.34,2.03-4.34,4.48"/>
      <path class="cls-2" d="M164.97,46.87c-.34.21-.81.18-1.08-.24l-2.85-4.66h-.97v4.22c0,.45-.34.81-.77.81s-.78-.36-.78-.81v-10.39c0-.44.34-.81.77-.81h2.69c1.85,0,3.37,1.57,3.37,3.49,0,1.62-1.06,2.99-2.52,3.38l2.38,3.9c.24.37.14.89-.23,1.12M160.07,40.35h1.91c.99,0,1.8-.83,1.8-1.87s-.81-1.87-1.8-1.87h-1.91v3.73Z"/>
      <path class="cls-2" d="M177.02,35.8c0,.45-.34.81-.78.81h-1.94v9.58c0,.45-.34.81-.78.81s-.78-.36-.78-.81v-9.58h-1.94c-.44,0-.78-.36-.78-.81s.34-.81.78-.81h5.45c.44,0,.78.36.78.81"/>
      <path class="cls-2" d="M184.62,47.1c-.81,0-1.82-.29-2.44-.75-.36-.24-.45-.75-.22-1.12.24-.37.74-.47,1.08-.23.41.28,1.19.5,1.69.47,1.97-.13,2.55-2.82.85-3.68-.75-.37-1.83-.45-2.65-1.33-2.73-2.89.81-6.93,4.34-5.08.36.2.49.73.27,1.1-.22.39-.7.54-1.08.29-1.11-.71-2.99-.03-2.99,1.41,0,1.56,1.76,1.59,2.84,2.17,2.04,1.1,2.43,3.75,1.02,5.44-.92,1.12-2.07,1.3-2.69,1.3"/>
      <path class="cls-2" d="M190.06,57.08c0-1.19-.93-2.15-2.07-2.15s-185.91.04-185.91.04c-1.14,0-2.07.96-2.07,2.15s.93,2.15,2.07,2.15h121.17c3.36.08,5.96.35,6.96.72.64.24,1.3.61,1.99,1,1.17.66,2.49,1.42,4.08,1.69,2.76.47,5.55,0,8.27-1.41,1.98-1.02,3.29-1.64,5.34-1.68,2.71-.04,5.11.72,8.23,2.64,2.75,1.69,5.93,3.33,9.34,3.33.72,0,1.45-.07,2.18-.23,1.95-.43,3.96-1.7,5.91-2.93,1.39-.88,2.83-1.79,3.89-2.13,1.86-.59,2.76-.87,3.5-1h4.95c.3,0,.59-.07.85-.2.77-.31,1.31-1.09,1.31-1.99"/>
    </g>
  </g>
</svg>