<?xml version="1.0" encoding="UTF-8"?>
<svg id="Capa_2" data-name="Capa 2" xmlns="http://www.w3.org/2000/svg" viewBox="0 0 168.18 99.1">
  <defs>
    <style>
      .cls-1 {
        fill: #e5a142;
        stroke-width: 0px;
      }
    </style>
  </defs>
  <g id="Capa_1-2" data-name="Capa 1">
    <g>
      <g>
        <path class="cls-1" d="M28.56,94.68h3v.56h-2.38v1.33h2.13v.56h-2.13v1.35h2.47v.56h-3.09v-4.37Z"/>
        <path class="cls-1" d="M35.4,94.68h.62v3.81h2.35v.56h-2.97v-4.37Z"/>
        <path class="cls-1" d="M46.74,99.05v-4.37h1.26c.46,0,.85.07,1.17.2.32.13.58.31.78.53.2.22.34.46.43.72.09.26.14.53.14.79,0,.33-.06.63-.18.89-.12.26-.29.49-.5.67-.21.19-.46.33-.73.43-.27.1-.56.15-.87.15h-1.48ZM47.36,98.49h.74c.26,0,.49-.04.71-.11.21-.07.4-.18.56-.32.16-.14.28-.31.37-.5.09-.2.13-.43.13-.68,0-.27-.05-.51-.14-.71s-.22-.37-.38-.51c-.16-.14-.34-.24-.55-.31-.2-.07-.42-.11-.65-.11h-.8v3.25Z"/>
        <path class="cls-1" d="M53.93,96.87c0-.3.06-.59.18-.86.12-.27.29-.51.51-.71.22-.21.47-.37.75-.49.28-.12.59-.18.92-.18s.63.06.91.18c.28.12.54.28.75.49.22.21.39.45.51.71.12.27.19.55.19.86s-.06.6-.19.87c-.12.27-.3.51-.51.71s-.47.36-.75.48c-.28.11-.59.17-.91.17s-.63-.06-.92-.17-.53-.27-.75-.47c-.22-.2-.39-.44-.51-.71-.12-.27-.18-.56-.18-.88ZM54.57,96.87c0,.23.05.45.13.64.09.2.21.38.37.53.16.15.34.27.55.36.21.09.43.13.68.13s.46-.04.67-.13c.21-.09.39-.21.54-.36.15-.15.28-.33.36-.53.09-.2.13-.42.13-.65s-.04-.45-.13-.65c-.09-.2-.21-.38-.37-.54-.16-.15-.34-.27-.55-.36-.21-.09-.43-.13-.67-.13s-.47.04-.68.13-.39.21-.55.36-.28.33-.36.54c-.09.2-.13.42-.13.65Z"/>
        <path class="cls-1" d="M63.6,94.68c.23,0,.45.03.65.09s.37.15.52.26c.15.11.26.26.35.42.08.17.12.36.12.58,0,.17-.03.34-.08.51s-.14.32-.27.45c-.12.14-.28.24-.48.33s-.44.12-.73.12h-.68v1.61h-.62v-4.37h1.23ZM63.66,96.88c.18,0,.34-.03.46-.08.12-.05.22-.12.28-.2.07-.08.12-.17.15-.27.03-.1.04-.19.04-.27,0-.09-.02-.18-.05-.28-.03-.1-.08-.18-.15-.26-.07-.08-.16-.15-.28-.2s-.25-.08-.41-.08h-.72v1.64h.67ZM64.42,97.21l1.21,1.84h-.72l-1.23-1.82.73-.02Z"/>
        <path class="cls-1" d="M68.8,99.05l2.02-4.56h.04l2.01,4.56h-.71l-1.51-3.64.44-.27-1.69,3.91h-.61ZM69.98,97.39h1.72l.2.51h-2.1l.18-.51Z"/>
        <path class="cls-1" d="M76.41,99.05v-4.37h1.26c.46,0,.84.07,1.17.2.32.13.58.31.78.53.2.22.34.46.43.72.09.26.14.53.14.79,0,.33-.06.63-.18.89s-.29.49-.5.67c-.21.19-.46.33-.73.43-.27.1-.57.15-.87.15h-1.48ZM77.03,98.49h.74c.26,0,.49-.04.71-.11s.4-.18.56-.32c.16-.14.28-.31.37-.5.09-.2.13-.43.13-.68,0-.27-.05-.51-.14-.71-.09-.2-.22-.37-.38-.51-.16-.14-.35-.24-.55-.31-.2-.07-.42-.11-.64-.11h-.8v3.25Z"/>
        <path class="cls-1" d="M83.6,96.87c0-.3.06-.59.18-.86.12-.27.29-.51.51-.71.22-.21.47-.37.75-.49.28-.12.59-.18.92-.18s.63.06.91.18c.28.12.53.28.75.49.22.21.39.45.51.71.12.27.19.55.19.86s-.06.6-.19.87-.29.51-.51.71-.47.36-.75.48c-.28.11-.59.17-.91.17s-.63-.06-.92-.17c-.28-.11-.53-.27-.75-.47-.22-.2-.39-.44-.51-.71-.12-.27-.18-.56-.18-.88ZM84.24,96.87c0,.23.05.45.13.64.09.2.21.38.37.53.16.15.34.27.55.36.21.09.43.13.68.13s.46-.04.67-.13c.21-.09.39-.21.54-.36.15-.15.27-.33.36-.53.09-.2.13-.42.13-.65s-.05-.45-.13-.65c-.09-.2-.21-.38-.37-.54-.16-.15-.34-.27-.55-.36-.21-.09-.43-.13-.67-.13s-.47.04-.68.13c-.21.09-.39.21-.55.36s-.28.33-.36.54c-.08.2-.13.42-.13.65Z"/>
        <path class="cls-1" d="M96.73,99.05v-4.51h0l2.42,3.26-.26-.05,2.42-3.21h.01v4.51h-.61v-3.18l.04.3-1.74,2.34h-.01l-1.77-2.34.11-.27v3.16h-.6Z"/>
        <path class="cls-1" d="M104.87,99.05l2.02-4.56h.04l2.01,4.56h-.71l-1.51-3.64.44-.27-1.69,3.91h-.61ZM106.05,97.39h1.72l.2.51h-2.1l.18-.51Z"/>
        <path class="cls-1" d="M113.71,94.68c.24,0,.45.03.65.09s.37.15.52.26c.15.11.26.26.35.42.08.17.12.36.12.58,0,.17-.03.34-.08.51-.05.17-.14.32-.26.45-.12.14-.28.24-.48.33s-.44.12-.73.12h-.68v1.61h-.62v-4.37h1.23ZM113.77,96.88c.18,0,.34-.03.46-.08s.22-.12.28-.2c.07-.08.12-.17.15-.27.03-.1.04-.19.04-.27,0-.09-.02-.18-.05-.28-.03-.1-.08-.18-.15-.26-.07-.08-.16-.15-.27-.2s-.25-.08-.41-.08h-.72v1.64h.67ZM114.53,97.21l1.21,1.84h-.72l-1.23-1.82.73-.02Z"/>
        <path class="cls-1" d="M118.97,96.87c0-.3.06-.59.18-.86.12-.27.29-.51.51-.71.22-.21.47-.37.75-.49.28-.12.59-.18.92-.18s.63.06.91.18c.28.12.53.28.75.49.22.21.39.45.52.71.12.27.18.55.18.86s-.06.6-.18.87c-.12.27-.3.51-.52.71s-.47.36-.75.48c-.28.11-.59.17-.91.17s-.63-.06-.92-.17-.53-.27-.75-.47c-.22-.2-.39-.44-.51-.71-.12-.27-.18-.56-.18-.88ZM119.61,96.87c0,.23.05.45.14.64.09.2.21.38.37.53.16.15.34.27.55.36.21.09.44.13.68.13s.46-.04.67-.13c.21-.09.39-.21.54-.36.15-.15.28-.33.36-.53.09-.2.13-.42.13-.65s-.04-.45-.13-.65c-.09-.2-.21-.38-.37-.54-.16-.15-.34-.27-.55-.36-.21-.09-.43-.13-.67-.13s-.47.04-.68.13c-.21.09-.39.21-.55.36-.16.15-.28.33-.36.54-.09.2-.13.42-.13.65Z"/>
        <path class="cls-1" d="M127.41,99.05v-4.51h0l2.42,3.26-.26-.05,2.42-3.21h.01v4.51h-.61v-3.18l.04.3-1.74,2.34h-.01l-1.77-2.34.11-.27v3.16h-.6Z"/>
        <path class="cls-1" d="M135.55,99.05l2.02-4.56h.04l2.01,4.56h-.71l-1.51-3.64.44-.27-1.69,3.91h-.61ZM136.73,97.39h1.72l.2.51h-2.1l.18-.51Z"/>
      </g>
      <g>
        <path class="cls-1" d="M9.05,54.39h0c-1.51-1.05-3.29-1.13-5.13-1.13H.11v20.47h3.46v-8.38h.88c1.51,0,3.44-.16,4.97-1.42,1.29-1.07,2.07-2.8,2.07-4.63,0-2.01-.91-3.85-2.44-4.91ZM8.04,59.25c0,1.38-.44,2.79-3.7,2.79h-.76v-5.48h.12c2.88,0,4.34.42,4.34,2.69Z"/>
        <path class="cls-1" d="M14.36,73.73h3.79l2.31-5.43h7.29l2.26,5.43h3.81l-9.61-21.81-9.86,21.81ZM24.16,59.69l2.21,5.3h-4.47l2.26-5.3Z"/>
        <polygon class="cls-1" points="44.26 53.25 40.8 53.25 40.8 73.73 49.54 73.73 49.54 70.42 44.26 70.42 44.26 53.25"/>
        <path class="cls-1" d="M55.94,73.73h3.79l2.31-5.43h7.29l2.26,5.43h3.81l-9.61-21.81-9.86,21.81ZM65.73,59.69l2.21,5.3h-4.47l2.26-5.3Z"/>
        <polygon class="cls-1" points="82.03 73.73 85.49 73.73 85.49 64.23 91.87 64.23 91.87 60.92 85.49 60.92 85.49 56.56 92.07 56.56 92.07 53.25 82.03 53.25 82.03 73.73"/>
        <rect class="cls-1" x="99.44" y="53.25" width="3.46" height="20.47"/>
        <polygon class="cls-1" points="111.26 56.56 115.88 56.56 115.88 73.73 119.35 73.73 119.35 56.56 124.02 56.56 124.02 53.25 111.26 53.25 111.26 56.56"/>
        <path class="cls-1" d="M139.84,52.92c-5.87,0-10.64,4.75-10.64,10.59s4.77,10.54,10.64,10.54,10.64-4.73,10.64-10.54-4.77-10.59-10.64-10.59ZM147.02,63.49c0,4-3.22,7.26-7.18,7.26s-7.18-3.26-7.18-7.26,3.22-7.26,7.18-7.26,7.18,3.26,7.18,7.26Z"/>
        <path class="cls-1" d="M163.07,61.48l-1.28-.56c-1.21-.55-2.59-1.17-2.59-2.38,0-1.29,1.1-2.31,2.51-2.31,1.24,0,2,.49,2.73,1.75l.35.6,2.8-1.8-.29-.54c-1.14-2.11-3.16-3.32-5.54-3.32-3.43,0-6.02,2.38-6.02,5.54s2.35,4.5,4.56,5.51l1.25.55c1.89.86,3.05,1.48,3.05,3.16s-1.47,3.07-3.27,3.07c-1.62,0-2.92-1.23-3.18-2.99l-.11-.75-3.41.95.12.61c.68,3.33,3.28,5.48,6.62,5.48,3.75,0,6.68-2.89,6.68-6.58s-2.58-4.93-4.99-5.99Z"/>
      </g>
      <g>
        <path class="cls-1" d="M0,83.57c0-.39.08-.75.23-1.1.16-.35.37-.65.65-.92.28-.27.6-.48.97-.63.37-.15.76-.23,1.18-.23s.8.08,1.17.23c.37.15.69.36.97.63s.5.57.66.92c.16.35.24.71.24,1.1s-.08.77-.24,1.12-.38.65-.66.91c-.28.26-.61.47-.97.62-.37.15-.76.22-1.17.22s-.81-.07-1.18-.22c-.37-.15-.69-.35-.97-.62-.28-.26-.49-.57-.65-.91-.16-.35-.23-.72-.23-1.12ZM1.21,83.57c0,.25.05.48.14.7.09.22.23.41.4.57.17.17.37.29.59.39.22.09.47.14.73.14s.49-.05.71-.14c.22-.09.41-.22.57-.39s.29-.36.38-.57.14-.45.14-.7-.05-.49-.14-.71c-.09-.22-.22-.41-.39-.58s-.36-.29-.58-.39c-.22-.09-.46-.14-.72-.14s-.5.05-.72.14-.41.22-.58.39c-.17.17-.3.36-.39.58s-.14.46-.14.71Z"/>
        <path class="cls-1" d="M11.11,80.75l1.74,4.05-.68-.13,1.57-3.92h1.39l-2.71,5.88-2.71-5.88h1.4Z"/>
        <path class="cls-1" d="M19.53,80.75h4.05v1.07h-2.88v1.2h2.55v1.07h-2.55v1.22h3v1.07h-4.17v-5.62Z"/>
        <path class="cls-1" d="M30.08,80.75c.37,0,.7.04.99.13.29.09.53.22.73.38.2.17.35.36.45.6.1.23.15.49.15.78,0,.23-.04.46-.11.69-.07.23-.19.44-.36.63s-.38.34-.65.45c-.27.11-.6.17-1,.17h-.84v1.79h-1.17v-5.62h1.8ZM30.28,83.52c.18,0,.33-.03.44-.08.12-.06.21-.13.28-.21.07-.09.12-.18.15-.27.03-.09.04-.18.04-.26,0-.06,0-.14-.03-.23-.02-.09-.06-.19-.12-.29-.06-.1-.15-.18-.27-.24-.12-.07-.28-.1-.49-.1h-.84v1.7h.83ZM31.38,84.2l1.47,2.17h-1.36l-1.5-2.14,1.4-.03Z"/>
        <path class="cls-1" d="M36.36,80.79h1.37l1.27,3.53-.19-.08,1.11-2.61.54,1.52-1.71,3.48-2.39-5.85ZM39.34,80.79h1.16l1.46,3.42-.21-.03,1.09-3.39h1.26l-2.29,5.83-2.47-5.83Z"/>
        <path class="cls-1" d="M47.02,86.37l2.68-5.85h.06l2.68,5.85h-1.36l-1.71-4.11.85-.55-2.05,4.66h-1.15ZM48.86,84.34h1.78l.41.93h-2.56l.36-.93Z"/>
        <path class="cls-1" d="M55.8,80.75h4v1.07h-1.45v4.55h-1.17v-4.55h-1.39v-1.07Z"/>
        <path class="cls-1" d="M64.63,80.75h4.05v1.07h-2.88v1.2h2.55v1.07h-2.55v1.22h3v1.07h-4.17v-5.62Z"/>
        <path class="cls-1" d="M75.83,80.75c.37,0,.7.04.99.13.29.09.53.22.73.38.2.17.35.36.45.6.1.23.15.49.15.78,0,.23-.04.46-.11.69-.07.23-.19.44-.36.63s-.38.34-.65.45c-.27.11-.6.17-1,.17h-.84v1.79h-1.17v-5.62h1.8ZM76.03,83.52c.18,0,.33-.03.44-.08.12-.06.21-.13.28-.21.07-.09.12-.18.15-.27.03-.09.04-.18.04-.26,0-.06,0-.14-.03-.23-.02-.09-.06-.19-.12-.29-.06-.1-.15-.18-.27-.24-.12-.07-.28-.1-.49-.1h-.84v1.7h.83ZM77.13,84.2l1.47,2.17h-1.36l-1.5-2.14,1.4-.03Z"/>
        <path class="cls-1" d="M90.68,80.75c.62,0,1.11.12,1.48.36.37.24.55.59.55,1.06,0,.35-.09.64-.27.87-.18.23-.42.4-.73.52s-.66.17-1.06.17l-.19-.6c.49,0,.92.06,1.3.19s.68.31.9.55c.22.24.33.52.33.85,0,.31-.06.56-.17.78-.12.21-.27.38-.47.51s-.42.22-.67.28-.5.09-.77.09h-1.98v-5.62h1.74ZM90.82,83.05c.23,0,.4-.07.51-.2.11-.13.17-.28.17-.45,0-.19-.07-.34-.21-.44s-.32-.15-.55-.15h-.63v1.23h.71ZM90.86,85.34c.17,0,.33-.02.47-.07.14-.04.25-.11.33-.21.08-.09.12-.21.12-.36,0-.16-.05-.29-.15-.37-.1-.08-.22-.14-.38-.18-.15-.03-.31-.05-.48-.05h-.67v1.22h.75Z"/>
        <path class="cls-1" d="M98.59,84.3c0,.18.06.35.17.51s.26.3.45.4c.19.1.39.15.61.15.24,0,.46-.05.65-.15.19-.1.34-.23.45-.4s.17-.33.17-.51v-3.55h1.15v3.57c0,.41-.11.78-.32,1.1-.21.32-.51.57-.87.75-.37.18-.77.27-1.22.27s-.84-.09-1.21-.27c-.36-.18-.65-.43-.87-.75-.22-.32-.32-.68-.32-1.1v-3.57h1.17v3.55Z"/>
        <path class="cls-1" d="M112.33,86.6l-4.5-3.85.35.18.02,3.44h-1.19v-5.85h.05l4.41,3.84-.26-.11-.02-3.51h1.18v5.85h-.03Z"/>
        <path class="cls-1" d="M122.09,85.81c-.07.07-.18.14-.33.22-.15.07-.32.14-.52.2s-.4.11-.6.15c-.2.04-.4.06-.58.06-.48,0-.92-.07-1.31-.2-.39-.14-.72-.32-.99-.57s-.48-.53-.63-.86c-.15-.33-.22-.69-.22-1.08,0-.51.08-.96.25-1.34.16-.38.39-.7.67-.95s.61-.44.98-.56c.37-.12.75-.18,1.16-.18.38,0,.73.04,1.05.12.32.08.59.18.81.29l-.38,1.03c-.1-.05-.23-.1-.39-.15-.16-.05-.33-.09-.49-.13-.17-.03-.32-.05-.44-.05-.32,0-.61.04-.86.11-.25.08-.46.19-.63.34-.17.15-.3.34-.38.57-.09.23-.13.49-.13.79,0,.27.05.5.15.71.1.21.23.39.41.54.17.15.38.26.62.34.24.08.5.11.8.11.17,0,.32-.01.46-.03.14-.02.26-.06.36-.11v-.68h-1.03v-1.07h2.21v2.38Z"/>
        <path class="cls-1" d="M126.13,86.37l2.68-5.85h.06l2.68,5.85h-1.36l-1.71-4.11.85-.55-2.05,4.66h-1.15ZM127.96,84.34h1.78l.41.93h-2.56l.36-.93Z"/>
        <path class="cls-1" d="M135.79,80.75h1.17v4.55h2.79v1.07h-3.96v-5.62Z"/>
        <path class="cls-1" d="M143.2,83.57c0-.39.08-.75.23-1.1.16-.35.37-.65.65-.92.28-.27.6-.48.97-.63.37-.15.76-.23,1.18-.23s.8.08,1.17.23c.37.15.69.36.97.63s.5.57.66.92c.16.35.24.71.24,1.1s-.08.77-.24,1.12-.38.65-.66.91c-.28.26-.61.47-.97.62-.37.15-.76.22-1.17.22s-.81-.07-1.18-.22c-.37-.15-.69-.35-.97-.62-.28-.26-.49-.57-.65-.91-.16-.35-.23-.72-.23-1.12ZM144.41,83.57c0,.25.05.48.14.7.09.22.23.41.4.57.17.17.37.29.59.39.22.09.47.14.73.14s.49-.05.71-.14c.22-.09.41-.22.57-.39s.29-.36.38-.57.14-.45.14-.7-.05-.49-.14-.71c-.09-.22-.22-.41-.39-.58s-.36-.29-.58-.39c-.22-.09-.46-.14-.72-.14s-.5.05-.72.14-.41.22-.58.39c-.17.17-.3.36-.39.58s-.14.46-.14.71Z"/>
        <path class="cls-1" d="M152.42,80.79h1.37l1.27,3.53-.19-.08,1.11-2.61.54,1.52-1.71,3.48-2.39-5.85ZM155.4,80.79h1.16l1.46,3.42-.21-.03,1.09-3.39h1.26l-2.29,5.83-2.47-5.83Z"/>
        <path class="cls-1" d="M167.74,82.11c-.23-.12-.46-.21-.69-.29-.23-.08-.45-.11-.66-.11-.25,0-.45.05-.6.15-.15.1-.22.24-.22.44,0,.13.06.25.17.36.11.1.25.2.43.28.17.08.36.16.54.22.17.06.34.13.51.22.17.08.32.19.46.31.13.12.24.28.32.47.08.19.12.41.12.68,0,.29-.08.55-.23.8-.16.24-.38.44-.69.59-.3.15-.67.23-1.11.23-.23,0-.46-.02-.69-.07s-.46-.11-.69-.2c-.23-.09-.44-.2-.65-.34l.52-.86c.14.1.29.18.46.26s.33.13.5.17c.17.04.32.06.46.06s.28-.02.42-.06c.14-.04.26-.1.36-.19.09-.09.14-.22.14-.38,0-.11-.04-.21-.12-.31-.08-.09-.18-.18-.31-.25-.13-.08-.28-.14-.43-.2-.18-.07-.37-.14-.56-.23s-.38-.19-.54-.32c-.17-.12-.31-.28-.41-.47-.1-.19-.16-.41-.16-.68,0-.33.08-.61.23-.85.15-.24.37-.43.65-.57s.6-.22.97-.23c.48,0,.87.05,1.17.16s.57.23.8.38l-.44.85Z"/>
      </g>
      <g>
        <path class="cls-1" d="M94,2.73c-1.97-1.28-4.19-2.21-6.17-2.73h-7.53c-1.98.52-4.2,1.45-6.17,2.73-1.6,1.04-3.17,2.29-4.46,3.72l2.49,2.49c1.16-1.29,2.62-2.5,4.15-3.44,1.88-1.16,3.89-1.94,6.01-2.38v17.69l1.75,2.22,1.75-2.22V3.12c2.13.43,4.13,1.22,6.01,2.38,1.53.94,3,2.15,4.15,3.44l2.49-2.49c-1.29-1.43-2.87-2.67-4.46-3.72Z"/>
        <path class="cls-1" d="M74.08,14.33l-7.02-7.02c-1.16.74-1.63,1.08-2.47,2.47l7.02,7.02c1.29-.83,1.67-1.18,2.47-2.47Z"/>
        <path class="cls-1" d="M98.84,34.02l-7.02-7.02c-1.16.74-1.63,1.08-2.47,2.47l7.02,7.02c1.29-.83,1.67-1.18,2.47-2.47Z"/>
        <path class="cls-1" d="M94.09,14.33l7.02-7.02c1.16.74,1.63,1.08,2.47,2.47l-7.02,7.02c-1.29-.83-1.67-1.18-2.47-2.47Z"/>
        <path class="cls-1" d="M69.32,34.01l7.02-7.02c1.16.74,1.63,1.08,2.47,2.47l-7.02,7.02c-1.29-.83-1.67-1.18-2.47-2.47Z"/>
        <polygon class="cls-1" points="77.03 23.28 79.67 20.95 84.07 25.35 88.47 20.95 91.11 23.28 85.82 28.56 85.82 32.13 84.07 34.35 82.33 32.13 82.33 28.56 77.03 23.28"/>
        <path class="cls-1" d="M80.98,11.27v-5.26s-3.51,1.71-3.51,1.71v3.45c-.44,4.84-3.29,7.58-6.47,8.36h-4.42v-3.9s.13-.25.13-.25l-2.55-2.55-1.09,1.95v8.25s8.28,0,8.28,0c2.22-.45,8.68-2.37,9.63-11.76Z"/>
        <path class="cls-1" d="M87.2,11.27v-5.26l3.51,1.71v3.45c.44,4.84,3.29,7.58,6.47,8.36h4.42v-3.9l-.13-.25,2.55-2.55,1.09,1.95v8.25h-8.28c-2.22-.45-8.68-2.37-9.63-11.76Z"/>
        <path class="cls-1" d="M74.85,43.39h5.26s-1.71-3.51-1.71-3.51h-3.45c-4.84-.44-7.58-3.29-8.36-6.47v-4.42h3.9s.25.13.25.13l2.55-2.55-1.95-1.09h-8.25s0,8.28,0,8.28c.45,2.22,2.37,8.68,11.76,9.63Z"/>
        <path class="cls-1" d="M93.29,43.36h-5.26l1.71-3.51h3.45c4.84-.44,7.58-3.29,8.36-6.47v-4.42h-3.9l-.25.13-2.55-2.55,1.95-1.09h8.25v8.28c-.45,2.22-2.37,8.68-11.76,9.63Z"/>
        <path class="cls-1" d="M88.34,31.92q-2.55,3.06-4.27,5.98-1.72-2.92-4.27-5.98l-2.49,2.49c2.77,3.09,3.94,5.43,4.99,7.95v1.04h3.49v-1.04c1.04-2.52,2.25-4.85,5.02-7.95l-2.49-2.49Z"/>
      </g>
    </g>
  </g>
</svg>